<mxfile host="app.diagrams.net" modified="2021-05-05T14:02:35.446Z" agent="5.0 (Macintosh; Intel Mac OS X 10_15_7) AppleWebKit/537.36 (KHTML, like Gecko) Chrome/90.0.4430.93 Safari/537.36" etag="JPlWAeIYG-MYE8mv4iE5" version="14.6.10" type="github">
  <diagram id="7wMoU-9Yul8q1cDtChr1" name="Page-1">
    <mxGraphModel dx="946" dy="557" grid="1" gridSize="10" guides="1" tooltips="1" connect="1" arrows="1" fold="1" page="1" pageScale="1" pageWidth="850" pageHeight="1100" math="0" shadow="0">
      <root>
        <mxCell id="0" />
        <mxCell id="1" parent="0" />
        <mxCell id="bY_rfbGoF0togMvtseXg-1" value="" style="rounded=1;whiteSpace=wrap;html=1;" vertex="1" parent="1">
          <mxGeometry x="50" y="120" width="760" height="180" as="geometry" />
        </mxCell>
        <mxCell id="bY_rfbGoF0togMvtseXg-2" value="" style="shape=image;verticalLabelPosition=bottom;labelBackgroundColor=#ffffff;verticalAlign=top;aspect=fixed;imageAspect=0;image=data:image/png,iVBORw0KGgoAAAANSUhEUgAAAUcAAAKuCAYAAAAy6t68AAAAGXRFWHRTb2Z0d2FyZQBBZG9iZSBJbWFnZVJlYWR5ccllPAAANxJJREFUeNrs3VmQnFea3vfn23KtDQuxkiBAskl2cwOb0920ZiEojTyLZDU4ilD0hCIsjBW+cYRj6PCFI+ybvrVv2HNpXYgcO+wYK+Rhc2Y0o5CnTdKSpofqZgPcmmw2SQAkCGKtPbdv9XtOZgEFECCBAgpEVf1/3QeVSGRmZWUmn3rP950l0Orab+2Atces7R1dBoCVesXaMWtvjC4fWa1vFKzCYx609t3R1yneSwCraNbaD629NPp624WjC8Fnrf2zUYUIALeaqyj/2NoPRqH5lYbjUij+IVUigNuomvyjGw3JGwnHQ9aeIxQB3MYh+d9Ze+FWhaMLwxfFyRUAa8Mr1p653iryesPxwCgYqRYBrLUq8plRUF6T8Dq70S8TjADWoKlRfh261jtE1xGMz/P6Aljj3BDD47qG8ZHXEo4EI4ANF5BfFo4EI4ANGZBfdELmwKiPDgDr1dO6ykmaq4WjO3h5VJx8AbC+ubPY+3SFYT5XO1vNcB0AG8HSuO3PudIxx0MaTgkEgI1gr65w/DGgOw0An+9eX96tfpZgBLBBu9fPXq1ypGoEQPU4qh5DqkYA+Hz1uLxydFXjXl4fABvYsVH1eKFyPEgwAoDPwYPLw/G7vCYAcDEPl7rVM+J4IwA47oTMJlc57icYAeACl4f7XTge4LUAgEsccOH4GK8DAFziMReOe3kdAOASe90JmYrXAQAuFfISAADhCACEIwAQjgBAOAIA4QgAhCMA3A5iXoK16eDBg9q/f/+Fvx87dkwvvPACLwxwE1W0tdMsEKvDhw9XVzIzM1NZaPI60Wg3p/EirKVgdAH4ZQhIGu3GG9MH1xCrGC/pSl/N7Oys9u3b578CWBlOyKzRY4xfZGpqSocOHVqdYzBVtS4bQDiuUdcajEu++112vgAIRwAgHAGAcMTIkSNHruv2r776Ki8acAM4W72GHD16VHv37r2m27qz1W5g+M22Xk9eBEHABwyf/7zT1kY7cOBAdS0OHTrE60WjMQh8YzU3wPuLBoITjDQag8A3rKVxjE899ZS/7Lz00kv64Q9/uCpdaYBjjgAAj7PVAEA4AgDhCACEIwAQjgBAOAIA4QgAhCMAEI4AQDgCAOEIAIQjABCOAEA4AgAIRwAgHAGAcAQAwhEACEcAIBwBgHAEAMIRAAhHACAcAYBwBIB1K76ZDzbxrSlNfmeTGnc3Vb+rqbBG9gJYPWVaavBJT/3jPc29NqP5n8zetMcOrFU3+iDjj09q56G71LBABICvSt+C8rMXPtHC4bmvPhy3/5Nd2v693bwrAG4bp//kU53+Vydv6DEia98nGAGsJ2MPT/iyr/POwoofY8UHBV1XmmAEcLty+eRy6paGYxAG2vVf7eHVB3Bbcznl8uqWhePkf7ZJ9d0NXnkAtzWXUy6vblk4Tnx7ilcdwJqw0rxaUTi27h/jFQewJqw0r1YUjsmWGq84gDVhpXm1shMyccArDmBNWGleMb8PAAhHACAcAYBwBADCEQAIRwAgHAGAcAQAwhEACEcAIBwBgHAEAMIRAAhHAADhCACEIwAQjgBAOAIA4QgAhCMAEI4AQDgCAOEIAIQjABCOAEA4AgDhCACEIwCAcAQAwhEACEcAIBwBgHAEAMIRAAhHACAcAYBwBADCEQAIRwAgHAGAcAQAEI4AQDgCAOEIAIQjABCOAEA4AgDhCACEIwAQjgBAOAIA4QgAhCMAEI4AQDgCAAhHACAcAYBwBADCEQAIRwAgHAGAcAQAwhEACEcAIBwBgHAEAMIRAAhHAADhCACEIwAQjgBAOAIA4QgAhCMAEI4AQDgCAOEIAIQjABCOAEA4AgDhCACEIwCAcAQAwhEACEcAIBwBgHAEAMIRAAhHACAcAYBwBADCEQAIRwAgHAGAcAQAwpGXAAAIRwAgHAGAcAQAwhEACEcAIBwBgHAEAMIRAAhHACAcAYBwBADCEQAIRwAA4QgAhCMAEI4AQDgCAOEIAIQjABCOAEA4AgDhCACEIwAQjgBAOAIA4QgAhCMAgHAEAMIRAAhHACAcAYBwBADCEQAIRwAgHAGAcAQAwhEACEcAIBwBgHAEABCOAEA4AgDhCACEIwAQjgBAOAIA4QgAhCMAEI4AQDgCAOEIAIQjABCOAEA4AgAIRwAgHAGAcAQAwhEACEcAIBwBgHAEAMIRAAhHACAcAYBwBADCEQAIRwAA4QgAhCMAEI4AQDgCAOEIAIQjABCOAEA4AgDhCACEIwAQjgBAOAIA4QgAhCMAgHAEAMIRAAhHACAcAYBwBADCEQAIRwAgHAGAcAQAwhEACEcAIBwBgHAEAMIRAEA4AgDhCACEIwAQjgBAOAIA4QgAhCMAEI4AQDgCAOEIAIQjABCOAEA4AgAIRwAgHAGAcAQAwhEACEcAIBwBgHAEAMIRAAhHACAcAYBwBADCEQAIRwAgHAEAhCMAEI4AQDgCAOEIAKsn5iXAdakiRVGiKg9UlqUU2VVBpjwcKIgqjXcDuyyldn0RBXbz0P8GDorKriiV2x1Ca0EQ+EtBZf9eDb+66+pVoaKq7DHttq5FuX0t7O+VSvv75kHTHrvUICyU2vV2leIitmaPVtnzqqf++bnf+0VR+OcYqVJo96/ssd33BwhHrEJXo1Ka91WGoeJGYqFjwZdWqqeBkrJSvxmpFiZqWWCV/VLlIFBgH7NGo6VavanfqD9glxsab09owlrLrk/iuiJ7PBeXC+GsBmmq2XRR53rzOtud1pmFaZ1dmNF8r6PP2n017Pu0ykhjYWXBWakISwtWqWZJ2RnkFtiV4qimJIgsDOUDMrf7uGcf8IkH4YjVkNetAssKRaVVaP2BlY2Vq8tUWSAOYkuoPNIgq9Ss6rp7fJce2vegHt5xv+6Z2K1NNQvEaIuvEC1SrVq0P8vgQiUZWkA28lR5lau0xy2jyleNgzJTp99RL+3pz6f/vT4487HeO/OR5jrTqiUWzLVYqVWScxqoWbdQzu0+dtvKHjuKrKpM6ipjX7iaPm8iCEfcfGWvp3q9ZoHjQsiCsbROs+vOVg2r0CJtrab08J779Gv7Htdjm+/T9mCzkrSmKKgrDhuaizJXv1kYjrq3vqIbBqW71Ktt8sFo9aDdxnWHAzWsO5zEucatm/zPp7apvC/XZ70z+tszb+v//eR1vTdz1AK5q5ZVi/2woySJZHmoIh92pbMqta+Bb67SBQhH3HTtIlR/kGnOVYlxoqSoaaxb1yOb7tF37t2v793z26pc8Fn/tbKwTF332qrKWlCzCLTb9/tWzUWK7ZPnKsXALruALKty+IHsu/QqfWBmlru5haQ7hunuE1kgTyxu0yDKFdUm9Y/u3q3f3Pfr+mDumP76l3+rV395WGUzVWElYhlZV9ueozvuWGT2PUPr2teayjLeQ1wb90msrvdOj/7pt3jlNqg0sYiLG8q6uZJerIe3fE2/sfc7+vauh7R3fKeyuaYaFprNyILQWmGfsDSs1Itc0IXalg0HSFSu21yW/qvjg9KqxMpuO+x2u4h0tyn8V/fv9ofm0kBjFrZ1C8Cs6KoTDyxEU/Wsi70wd17/4tRf6OjJj3Ri/lNV7UrxWKQ8z5SnqWKrHBXWeRM3oDd/7ydUjlhdVdJU93RX98c79Ttff0q/ZsG4s7VT9bCtsLDQarb8SZJFF2xBYV3pUHXLv82Z70yrHwyPLw5b5cPRZVbl/u7+3XWnNRxjZnWffUCtyrTKMrAucmAxuSlJhscXE7ufddfrVplOlE0FVhUWm7fpv92zTa9/9JZe+eW/19sz72l2Zk6V5WESWbfeHiEveQ9BOGIVTJzL9dDOh/QPHv37enL742p2W4rTpuqNcQ2yUpHrbbujiq5nbV1rf9LFBd0olOKk9MFYXjj2VwxvMLyV2v745aiydEHqHjDytxoOHQoXFFn1OGFddtdNT8NIc9bN7tnX3IJ49+w2bd73lHbu3K1/8/6P9DdHX9N0ds539Ut/wDHnTQThiCscRwm++IxEmFmzSi1t1XxF155PldTrOl/2NVar67/f/t/okYce1eT4lIrZQtHYpKJGTb1eqlqtNsw5DU+y+C6z+37BcOzj6Dv48POh6arFKrzswE554TGiapidTjRqRV7zZWURDoPVVZNte8BWHg4D1crEVtrWo9Ej2vO1u/SrE4/pz9/4C702d1jFjkgtd8yxkym0n2U2tvuHscbdsdFeV2okoxNEAOGIy8MxjpS0GurNTPuxiXm7poXpnvaMb9MTDzyhJ7Z9U1umtrh+sDKrwqqiVFXmw0HW7hhi8PlJVy60lkJ5eTb763VpWPsudjUqN6/wOJdfrpYlq/seM+1CDXse9X6uHWVN7a0PKPyVTINjkV7+9GeW9tbFjgPFg1RTSVP9ItfCoKdWs628cGFLOIJwxBXTMdB82lFYlUosgGbyQrsndusf3vu0vnPvdzRZTCjtD+TmvSRB7I8NuoD0J1TKQtVorMzyQLw8/MJL6sTqQhV5eQBeKRQ/d31w6b9PBKE/qeNm57jZMI3GZj0x8SvqWyA2OjX9fws/VrM1ZnfqKej2Fdv1A/uFkNqTcLN4AibQgHDElZRWBaZpT+PtpnrdTJvjTfrPH/q7evqup3RndKf63a4/9hdbF7puzY8fdCdMXMhZMBWjfvCFSlHBJSEZVtFST3l40sWdofZjJkYBF5RfGIblKAyX/ucHoY9u7x5rvJ9ZEIbqNiLrPduzsQqxZV3tJ8cf1b0PbtXMu2f0aTqrXqNU2e0ptGBvt+vq2W3rvpNO5YiLn0/gYtfUqq5N9TENikC1cFz/4J7f0N+769saq6YUzlm1GMWqJ25QdzwcQ+jnL+c+MJf3qK/UBR52g4sLzf3PDdJ2rdSo2WMtXXflVn1hmw8GGliH3x03nQpq2lw2VFsM1c7HdefW+/S9B39b27VF/TRU1qorDy0k00w1XwtTNoLKEVerHK1yqw0qJWmiJ+75ln7rvgPapa3Ky1CDMrUu8LASzPPctzi2WIlCP4jbTftzC1MsVXHLK7rlxwiXd7Zzd+Jl2TWFvrhbXY1OmFQXKsaLlaP7miehf4SwyC0gYyVhrMy6zL0is6+Rvn3Ht3Tu/lwzP/8Lnep/Zt3umgI3BjJ0C1fw/oNwxFVkFo7BINfjmx/W7+z5De2o362qW6nVqCu1qqwVNXwIuRM3bgpg4AZnu26zBUtmgRSFF7vTF74uO6bozk4Pz2UvC+RlxycrlVcNRh+ey/++rIu9dNtWlWhgKdd3zWrIyE0ZjAvfa3cnjYJqsw7seVLnZk7qLz9+RQtBR4Gbj51Wl5zcAehW49JwtFqu3h7Tr93zhB5t7VPejyyQrKqyKjGNM7mVx5ZWuHEnYTLrVqf2by60ymUV3dLsl6u1ctmxwgvHEa/Qlofk5ddf6d8L+75ZPhzL6J5fUaXDKYiJ/WwWkt2qplavoQO7H9VDd+xRrzfwy6spCey2BR8AEI4bVZINg8PNRBlYmMQWfHVLp9gXbBZo87H+zpb9eswqxyRsK7Lbt6JAZZ6pWdSUVl3ltUTd3CrJtGHh6c4KuyXBCtWsaxoXiXVTW76sy9WzwAn9zJQw66mZN5SUDUupOTU1p7bdfrBQKCka1jUvtBieUV6Edv24devb9r3sOeZ91fKmv36m3rHbzmjSuvehPZ94YGFm3f2FsFTfArFbD5Wndp0bc2n3DS0Y3WHEuGZ/ZJXqeay6e7ZVrDsm7tOv7f47uivbpLCX+WmOYRwvm71z5QbCEevV6PifXz1xdAbFTalzx/pKC6stGteDu7+m8caEUuteB1HoF551Q3T8zBYLO7ckWKTUutBuKEyq2HXFXUVpudQNZq1KS1VF+fBkTVYqtWquX2Xqlj0N+h2FpYVrFmgm7ag+4QZ1D7Q4u6jxeIu/32x/QfPpeb/GWBwklms9e/CB6r1KvaSm2TxVL678scTAuvITFnZb7DG39Kz6sxAcb2+ywG+qWKhUyyJFlnxhmdnP67rXpV/EInHzvCe36b6d96hZNf1Z71zMLcRFHHPcYEoLBhcQsVuJOxie4HDDV3I3GMfC8huT9+uBrV9TI2haF3u4kndqwVazqsqFR5kHajQsJJNci/mCVWapxmsTCsqasq5Vgq2O3bdhoTVcpTtMrBqrF+rk7hxyoR3NSZVdC7wo1nxjoGJwUuNVoMmJcWXz1i2uDRTa49eabrFcd/9IvaDrz2I3LAAru86ekrJ6oLlyQVmWWcVX10QjVN9uU0zGWkinLRwTtcba9jxKH8iRW6HHKk63LnhslWZUxNo5tkOP7HpIH57/WOetmnUr+UQVZ6xBOG5IxWgdpng4FWV4AsQdm/ODsUP96p4ntKmYkuuRutW03SISgXVhkyS0Lq51sasxP6Tm2Nwx/fTE61ZJDrR/50P6hnXFY7+m43AoTugWsbX7W1GnYwuf6PDJv9GpxUX9+t7H9fX4IRUWem+df1PvHH9bW+x2v/vo31cjnVLDuuydbNESsGaB1tSZfFo/ev+vNUgX9ciOR/TE+ONWmXb12smf6P2T72nGqkx3htpNC+wUfQWTVhPa3bfH2/Xkvd/WnoldKotKSThcGi2wYKzy4RTFdtXWvRP77LZ3aLo/p2rCXpiUzwgIxw3Jd6iD4Z4qrtvrpoS4LrPbh6Vu1eL9276mJB1VT4nrdmf+WKQ7E+0iJbFQXcy6evPse/q/P/h3yvKuX6X7rva92lxNqpZbqBXRcNntuNT8YFFvnXxTf/nuv9XHnXM6vXBC/+OTFo5BX//mZ3+mI+fe1nhYU1nP9Xv3/J7KNLFW+Pt2gp5eP/um/vUv/tweZ0YPnHtH9/36Y5oOZ/R/vPGn+mD651JtOMN6Ig2UBrlOzs5pqzZpU2fKuvgL+t3Hftu661aV9kvVk4b99Fat+so5VpgOtNW68nsmduvD7nHrppOM4Jjjxn7Tl1a9cfWi/SW0wGuUse5sbdF4MqHEqrYgjizfBlZNlpaR7lhead3XZBiUdv35Ylqnkll9Fk/rROcz63oPVFpV5qrHyLrYQTlcCKJXdXSmf1an89NaaC7qRPaZfwJlnFloHtF0NKeT4Vm99O5f6MfTr6kT9tVujKsVtdUrO/pw/kOdi2Y1P9XXTxePqBHGVlRWOrn4iRbHFtUdG6jbSO1+qdJ6aBWuhaT1x3N7PlWc++eV+Y21Arsu8F19f5bblQVW3bbDpvZu3at2PGa/APhsgMpxA/82dL8P/QJgvmJ0A7iLXq4JWRdz8y7f7a7C0B+XdM0ds4v8tlrDtRBdUajQqsiiZ5+e4YITrnp0geW63Wk+8OswRlHpq7rIL0/mzmbndvtQ482WVXGVutYPHkQDtesNH76f9D7T/3n4RU0+eae+nuxTkkVK2i5E+9ZFLxQP+8EK5t3jpyqzTM1GXUVHunfrN7S7OaU4qVkIWmWYp7pr1y59a/c3NenOfOeh4nrd7lP46Yvu2GpmP5sbTpRUNW2f2uZPQBXFDB8QEI4bu2/t5ihXfq1EF5ClhVrDgmvnxFaVdl3fgqduVVZUsyCx7rTbqCq2EFtIc+uqukUmLPSKzLrQbmkHt0CFhY6l1+Kgr6TmTnxUyi0kK7tNHo1W+i4jP2wo6Nr9Vbd4W1DSqrnzOYosqGqTLb0195H+n3d+pDsf/p7GilB5Nm+PP/A7GVY9u2GjUNFoWqiG9vztOVkXfFO/pX98/+/o18cfsaqypb6f6VL6U+fuuKr13i3I7We0yjKz59WoYv9zD9zxydEik62krUatpapTDs/2AHSrN+AbbgExiEq/YITyupJuoKQRaSYsdFe1U+1BNDxZY7fxi8sGid2+ZlVhpraFSb0YWPC1NHDL11SJxrNEcxaIZTdSPRz4fWNUzvjtUsuspWbmpgim6jcSq/7sUuL2hJlVu9+27q9VnVFf0/GMgrRhv6kL/dniX+s/fvKyFuz6NB/T1vlx9RqhuknuB5wX1Rk/PCeLe8qypvpWnbasEg17bYWDKW2ateefWri7pdeKlrTYsO601I86KuKOfW973Mh+Gfh9rmP7WdwSZ/YaWOJvDuqj/yS+qIHKEevWcDDz0io4o1kq1pIk8cN6Ii0tOTYc/xiNbrc0IWX5yjUXZqbo4swYPzsmuLhizoVZLe7bRuHosjspYtVhFaoW1tUIrHLrFxprRvqX7/+ldjXu0DfvfEgfTVZqfWTd8onYnxoKLazdWXT/M1jQDuJUP597R/2OGwLUVjy/YIHZU7M1pbsn7te2se0KQrentlWtqTuMMNzp0M3nzt12sPYc3POo2c8eLVtVCCAcN1yPuhrN9nDLk1WXXBfXktGyYC4gXIgUfv60mxoY6bKFaoOLXy9OCbRgDHL/uKUfGL4UjMWFfRL8SaBquOWqH1Sey6q8pna3dlnFWujn6TGVvWP63z/+U7V2tP3snTxxxzUt/MqaH1QeuLPo9rx6tULztVn96xM/sm73q1qwT3O9ZuGb9bQn2qZ/fPc/1FN7flVjYXt4Vn60OrmviN2sHZfW9lwjqxrjOFbI3GrQrd7Y4RgGF0PAz4cOhpWeO3NdLQu0cmnFG/v34rIK8ZJ5zaOgvLjWYvG5OdAXArRYqj0Lv4qPu0m9amjfprv19NcPWLAlajVLvd45ohc+/LdqzCwobVpsJZHGgoZ61l0fFLksg9XKrCtchBofpNpqj7jZuu+7BrnGe131p89qpnNei3lf/WKgqKjUcHs1uKrWbd06WmatXDaf+mrrSIJwxEboUl8IrVHX1wfjcJHXNMsssIpLtkz1t1sKxgtV19KnZ9mc48/NPR5uFFNpefgUF+5fFJnfdtWdHAmsyzsVb9L+3d/Q77oVcxKpae2nH/xEP5193x9DTFwnJ4xHtWcxrDotGAf9UFFpFWayxf5pQtN2udbaqTs37dO+sbu0PRpXSzXlcaX5JPX3Xapey9ECaW5euHs+BeEIutVUjxcrx2GXOrfQmu8sqhqzOHNnpN3SYi7M3LJk1dJOV8MdApcfc1zaRXCpW32hatRwrcVRIvvvNAzSxN+pcJVblFve1ZSldp9+rrGqqf/iod/SR4c/0etnD2ubVYhv50e11YJNnYH6UU1pXPhVdlzJOV7VtDPZpoMP/D09sfObfifChoXlwE1LtN/7W6Pdiuwxu/2OfcvUz9qp4rq1UHkxrIbd88+KVL0svVABA4TjRqwc/cITpe80BKN1GN2JZ7dw7fzigsrWxa1Tw9FisvLHD0e7++myLrRbsMEez822yUcrehdLxxz1+S0P3GK5F5Yzs258HmR+b2oXwKF1iXcnu/VPd/6OPpo+r6C2oKg/q7xptV8nUemODbrtX2tuj5hKA9ctt+9Sn9iiWn273Jo7oQWf6j3VLITbvXE/lCdyw3PqwxV38mwY2+55Zi7Kg0L9PFNv0PdzyN2SFADd6g0ajsu7xksnY9x1vV5n2fXlJVXhsjrw4nXL1m5c2jJh2IYr8lx+bHIYxqE/0Om2Y3CfvswFnF2uJ4lqcaLNc7F2bf+G/uk3flfn8oGFnnX33cIR9ZpVprmfI+3PqluouYHlWTbwZ6LjxUqtTqzWjFW951OVi5kGqVsNqPL7VVe5Pa9u36/36H4uVym7yy7Y+1Y1upaXnKkGleOG5eYf18PmcCsB1/m1qioblGo0Sv1V+jc6kH3LqqzNyvqB28VU4ZhbL7FQZOEykdbUdHta59PabN3XO6q2ztT7Opa9r//6P/5z9a17fHqsr239OxVPBrq/faf+p8f+B7W746qSTPMWgmN5pW5zwcKq0uT8hE7umdFgOlOZ5erbY37S6Gp3MKHf3PQdzeya0Z8d/UulrTl7vJ7m5meVdad0Nv5ErXST0omz/gTN//Lmv1DhxjpGdS1MDBT1Cu0Nt+ofPfhb+s09T1lotuzfY4W1poXxnP28Fs6NtpLZRSlJ9fPzH2rRSky3ClGrGv7iWP6LoLyO7vbV1nzkZA+VI9ZEt/riSt1LJ1Tc3weDgabzBaugrBqL5ReocBWg26I1CYZ7yEyPlZpp5lqsSV2LkE5aadFVaG6uTKOlrXFdbqnbudMndfbUcS32zyip5X6Rh6DXt9s0NbAgjPJI4xaCi+dSq+Bqqo+1/XHEsUZdi3mqpNXUt/Y9pF/Z8bCFXV2Dc6V2FdtVH+8qjrsaTyyErBK0J20d4ULNeqJ6I9DWqqGaBeXc4oJOLp7XqXxOXQvAPBrYz7VgFWtNkTv2aJViWAs0V/V0cu6MumnfL2sGUDlu8G61a27R18vD8d2Zo/rm2LjGorZViJlqlfxsktwu992K4KHrjoaaqE1qd22bBZdbq9YqyypWYY83sLzaHIxb8BTaMb7Tz9UeG5vS9sZuC61cdyZ3qOyVFmR1PbZ9v+amB7ojmdKOxma/H03a6SmPh1Ma9yTb9NRd39bs3KLOL5zXY3d9TR0LO7fC+F1Td2owN1BqIeeOEritHHq9TM3auLaUTe2KJ3V3uUWbezXVkkj9xnCbhFYaK3CroVsAp1bNfjp/RscXTmpQdf0cb9a7BeFISF6x6/f6qXe0545d2jw26TY4Vc0+IqFb0dvCUc2mWtbd3lSf1K9ue0R3jd9h3fTUb2vqFm7M4lBNqyKToq1OMq/xelP3lDu1bdOYtu6fsIpR2tu0wErGrTvb0G8+/He1v3OfJoOa9m29V1Vgj2EBnfZTjdl9m4079MCmSv/kiS1+j5ctjTGNd0PVWzv0vQef0Wx/xqrSeFgBW6nrFrvNMzfYO/MnZO5o3qF6tEW5O5Ra5H7FnqI2PP4YxrnO5jP6xexHOptN+0UyhmfkWewWhOOGtHTsy20+tfzkzNLfP+qc0Edzn2hne4eayZgydwa3GM6ocd3sQS9XI69rS7hVzdaEVYgWVlVolaVVnlZZJmMWThZQqXW93QIV3YXAvrZ1V/N+qypLbbYALaxy6/YX/Pe4u7VJcZEqyyotZH1VUaGtrTHl3a7OdRfUtqrzIQtqN7c7clskRJmqMtHWsbstfK2b7VYV8v8W+42/6uOJ+u7xSgtI6667OYd+No7dLohL/zyrKrfufaHj5z/W22d/oX7QtSo6uGzTWBCOWHPHC28GF4bO5eHYS7p69/xH2jO5R/vGGn7h2TBMFNXcGo2Z0lZdi6WbF+3Wy7Hr8uEZ6NQqs8weo9F1S4oldtvcnxF2OxPWLJjG7N/Gw1hnskJjVsFFFmDqReq69RddxWa3rYcNN8FbnYV51eJIcbtpXX3rClu3fiJuamZhUeNu1Z+88lMJ4zxS4qZA2nOI3ZbZ9jzONQf21brXkds0rLBnYt1uC+R+3FO/lqs517SufqbpYk7vzh7V8fmPrWK1qtKt/xNwCB6EIxXksr2il776DbEsQI4unNDbpz7U5LYJbW1OaRC7vVUy6y5b6CUWNm6V77A2XPqsdNuhBn77Abdc2ZwFaGzBFEXWRXYLQLYqdbPMjx50QxCjaMqydFEWmxZeiV/ZJ7Cusd+hsGd/7VtnvlVTzy1W6+5u1WnRTZWmXY21EvUs5MrABXXpu9qDsLCKsPDHCsvMArhjFax9qvNGZbctFbrvbaHndlGccMN/7OfolT2989n7+oX9EuiHLuLdupWRP2a6mtU6CEesgepz+Znqpet8OCa5ZvqLOnrmhO6Ld2v7ni12XaiBVYR3xFZfWdc3dpts2eWa27fawid2G1u5+c5urGKt5a9LLPgCN7bQQjOwCq4ZxBaqqcasuutaIAX2ffyWsKk9D7t91KgpdbezQO3X5avJsG/Bl3WUuhNHlsWN3AJ1YFVr6BbDiP2K4mlhj+XWcPRDyRPFSdMCe6BGGvjhQm7LBvfzzZepOnb/pv0e6OU9/eLEhzqxeFq1RmSPG9njuM3EotFxR4BwXJPHC2/sMdy85Eu71NVo3lwUWSfUDdlJ+nov/7k2uTPR5xb0wMTXVQ82WVWYqOn2oApKLQx6fmaNW80mSOpWeSUq+6Xy2G1IEMjqs+EWDPlwWbDUTSGM3ao/c/ahc1VnzbqxuV9NXG43aXdsMMo1sMe0Xq9dU/fnRtx0RDdUxx0O7PlNqF1H2b0OveFz9ieD3OI6dqfIuv1F4ue+ZG6jr9rwl0GRu7PfFoLVpN6sH9brx97UewsfucUtlVlYD6Lh49fdLJ/gCq9xtfL3iL2uCUesE27YThEMF2P4cO6UGhpTo75Ve9oNjUd1P2A8iK3ii2sKw+EJHT9G0EIqWnbMbvmKPDc34KsvDJwsDvyaj+4YYu5P9AyGq3tblbs4WNTPTr2rY7Mn1SndNg+V37/ar1nput5uemGV8yEA4Ygrh6PbyKCrgT7unlfXDZiuN30g3TdmwRhOqXIVp8uQcDjf2q3q47d8jYbrI14ehjfzRNLFx7zK4QJ/9nq4Z7ZfAtyeT1XLNZ3O6eiZ4zpy7l0t9hY0CC3Q3aIa5fBkUOjrXa3KtIib/fODcMRXoBz2UVWLYvWjSqey83r99DvW+01Vbp/Xfe1vDgMwC/1CuG6ecxJFfo5ylqV2Obkl3crlJ5QuqUjd8c++G+5TKIp9j13nNa+3Z97TG5++6bd1dRVj5PaXcUuqXVi5PPAbiwGE4xp0KyoQN1fZDY9JLFnc2L9OmupM94zetFKsVy1o7M6dGq+3NRa3FWaV8r6FkNtiwFWN0ep/nJZ+/iC4tIt+Yfxmf+BDT7VAWZLpbDmnd86/r5+celO/7B1T1c78yt9uSTaNqt4gTvwybW77m5BeNQhHXIlbqcYNmnb1X5CXaoWRBnGmM/mMZmcW1cja2rftbt239V5tqk0oGrgz1m4XwlhhEvud/i4fIrSaIXn5392WrVEzUlrL9Fl2Tu+ce18/PfmGPpo/oW7T7aroDkEGfgXysrpYLVb+iEA+2roWIBxxmVowHMySug52nqtu3eR6GCuLSi0Ui3r55Gs6OjilmbSjr2++T9tqd1gv1Z2FtnukA7WC1iXDgy4PyJsdmBeXRRt+DaNCC1Vfp7vTeuv8ezry2Tv6ePGk0iiV6/EXmTu2GPs9q/3yvZXfWUahG4oUugOVNT4EIBzxeQ2r/FzXOreKqoiGYaliFHJxoO7mUu/PH9PCTEcLWxf16O6HtWtqp+Kk5pf2KgflJeMnV+HgwhWrxwtrS9ZDnevM6f3Zj/TWqXd1dPqY8kapWi1Wv9+3CjHx55L8UrzVcCa12+e67jYRc1u4MvIGhONGdaVu48WlaAahXyPcLzYRB268Yu4/JYEFZNtvaFqoaEqnq7N6ufNjvX30PT0wcae+sXmP9kxusyrzQQuZSrE9ZFSNzgJHw+mJlRv6k2XD7xgFw72tRzsRJpasbgGLBXffePix9IvPVsFwZ8Aw9Cd93A5dQVr6arWIQx/kbrpgzZ5vPUt1pPaO3jr7nn52/H2dKxdUjkd+r5uB/VsUDBfYtfLRh2I0eilcl9rN4cn4cIBwXIuqS6qmr0qUD59KWmbqWsgsDnLNZQMd609r0+yEDo5Z0LUaStoWpUnTQlZKskj1QejDb3G8rpplXM3CsF7E/qfqW2h1LK3mrI1lF7bSHm6dOjzz4mfduBk89Xp9WM76M+buGKJdH2eaqxZ1Lp3Wjz5+TafnZzTrVptMhts9uKmGkT/WOKwaAcIRq1J5RqGFnVs8wsLLbVR1rprTucUFhYuRPjxzQjvG79D9m+/UvvFd2lbb7PeNDutNqxZrqnodv0BFZUFVWAvdSZEy8lMR626eddnR0vHDIAz8QHMtHRe0izU3s6ZK/cK7YTWw55JrvpjX23Mf6o1TH/rdCv2mYda9dutVur253LDM0A9TD/VVLNjIGEfCERvAhcUZLBRjK8uSaljVBn7Udanj1Sl9tnBe73c+1uZ4Qtvrm7W7tVU7m5s1UWvrjmST4kbDwrChVtBWs3Kr61iNaNWl603n0Wi4klWMvnIshzsEur22I+tGu9XEw8AtUZZrUO/rdOe03p35UD87+wu9P31C2WTpK8/Idb/dVwtfN/vFTZEsi4rlGkE4YnVk7rBd4ZYMq3wA+WOKYeXnl7ic3B63lLnly7JFfdpf0MnOKf18vq5G3PADy3dGU5qoj2lHY4vuae3Q/eN3aZNddscg06RUrUhGuxyWo+1ec39c0j2+G3WTW2UZWiL31dMHFsB/8+mbeuvcLzWbzqqKCzVcdehn8BRuS0WVYewrSBe2ecAy3yAcsUqi0Zlrt91pkER+Z7/CAiwrCz9GMhn0rSqMNRnXFdVCv9JOr+r5vWnS3Lrg2acKrHvdDsZ139id6lm3+JFmolY4bpVdbh/Itj+06sLQnYApRxup+rrU7TXd7mtmcUYfzhzXT6ff0xvzRzVTLaheD9RyW4b1y9Ewomh4vNFddnPF/TasbJoEwhGrxG2N6qcK+r2qLSjLUeIEka/Qmn6oTKlpq+2KYtjFrVk6TSnxX7NmqkW7xanBrNSvaU82pz1lqrb9W90CLbWgHQ4Bqvze0m5fGbcxbJYPlKapfhkd0wenPtLPT72vE4Mz6sV230Yid2rHrTAuewy3ClDgFo901/lZMOWw6++2g+XwHwhHrAa38b1b+dsFmFtE1sWYW3XMjZ8OrKvdsfDzC1NYMNaC2G9t4PJzvij8Vgfbg8qvmNOy27a6hWqLmaJJi0ELLje20m8AuLRftvvDTeurCr/513xnXq+e+6mOz5zUmXRGYcMew75H1Uvt/qHK2KrFarh+Y1GVvmJ0ERvYZb+Yru/63/p0ZOEJwhEbwHB4zXBGyuj/bg2KC/3VuBz9ZXTioypzn3V11+JY02XfLQ6uequuMg81lrRUixp2x0gThZvdkg5nupTDLWEH6upY+pleO/8LvTV9VKcHJ/zD1xrDx3fHQP0+sho+rTAYDtaJKy2rEoNR2BJQIBxxm3KLVGRWNfYLt1p4rvbEuJ+T3Rm4/avd8Uw3XdGFa6FTVh2+1zmut6c/0NFzxzS7cF6a4DUE4Yj1+IErh2tA+pMtWampxrjqRajMyr6wFmusVtdMZ1YfzB7T4en39dbsB/qsf8YvD94cYxwOCEesU42+hovkWrXYsq+TSc2+BtZ5LpVal/rd6eP6xcxx/cyC8ejip+oW835BCLf1apZElpHs8QLCEZdYH8fL3AK5bshO0qhZdzrSXLnoq8lzg57Oz57Xf5j/mc70ZnR2MKsysm53u6G4ijTIMnUWM7XqDMYB4Yh1qBO7+dmVP73txif++LM3FReJpvOeZs+f1duNj1UrK7kMdENy3HxqN2zIDRmaVN1tncWLCMIRl9Rc6+KnSMNKTbnzLZkW8oHeOPOuetZT7keZwrxvVWR5YQ3JwkJ04LZ3tR89cUvoRMxwAeGI9fqBc4tWWCUYZaUyC8pBMFA3LtUPUo01Cm3rJn57VrcUmZsK7cZSuipyEGaarQZqV+21d0CEMY6EI/BlQZBkmQb+UxcqjBvql7n/EI75P2PN15fq5NJf48dR+vnckVr2P8Yq4lbh6DYAEI4AQDgCt4XV3IURhCMAEI4AQDjiyzplvAQA4YjPY+gKQDiCkAQIRwAgHAGAcMRq4MTMWsXcasIRhCJAOOKW1R28BADhCACEIwAQjsBGxcIThCMAEI4AQDgCAOGI2xNDegDCEQAIRwAgHLFiDAcBCEdgHWHhCcIRAAhHACAcAYBwBHAzMbeacAQAwhEACEcAIBwBAITjmsFAYoBwBADCEQAIR6wYY+UAwhGE4jrCwhOEI1bnPy1eAoBwBADCEdgQmFtNOAIA4QgAhCMAEI4AAMJxzWBID0A4AgDhCKx/DOchHLF6/3nxEgCEI7C+ML+acAQAwhEACEcAIBwB3EycrSYcsXr/eXFQH7iFYl4CYPXwC43KEQAIRwAgHAGAcAQAEI4AQDgCAOEIAIQjABCOAEA4AgDhCACEIwAQjgBAOAIA4QgAhCMAEI4AQDgCAAhHACAcAYBwBADCEQAIRwAgHAGAcAQAwhEACEcAIBwBgHAEAMIRAAhHAADhCACEIwAQjgBAOAIA4QgAhCMAEI4AQDgCAOEIAIQjABCOAEA4AgDhCACEIwCAcAQAwhEACEcAIBwBgHAEAMIRAAhHACAcAYBwBADCEQAIRwAgHAGAcAQAwhEAQDgCAOEIAIQjABCOAEA4AgDhCACEIwAQjgBAOAIA4QgAhCMAEI4AQDgCAAhHACAcAYBwBADCEQAIRwAgHAGAcAQAwhEACEcAIBwBgHAEAMIRAAhHACAcAQCEIwAQjgBAOAIA4QgAhCMAEI4AQDgCAOEIAIQjABCOAEA4AgDhCACEIwCAcAQAwhEACEcAIBwBgHAEAMIRAAhHACAcAYBwBADCEQAIRwAgHAGAcAQAwhEAQDgCAOEIAIQjABCOAEA4AgDhCACEIwAQjgBAOAIA4QgAhCMAEI4AQDgCAAhHACAcAYBwBADCEQAIRwAgHAGAcAQAwhEACEcAIBwBgHAEAMIRAAhHACAcAQCEIwAQjgBAOAIA4QgAhCMAEI4AQDgCAOEIAIQjABCOAEA4AgDhCACEIwAQjgCAmxSOAa8cgHUtXsmdsmxSQVDapdJisrKstK9BZZcL+1rY36tlt654lQFsjHDMsykLwXzYwswHorschtXFwCQUAWy0cGy2jl3WxSYIAawvN+GEDMEIgHAEAMIRAAhHAADhCACEIwAQjgBAOAIA4QgAhCMAEI4AQDgCAOEIAIQjABCOAEA4AgDhCACEIwCAcASAVQvHKmdrBABrw0rzakXhmJ1PecUBrAkrzasVhWP3/UVecQBrQveDzq0Lx/n/NMsrDmBNmP/bmVsXjnM/ntHg0z6vOoDbmsspl1e3LByrstLJf/kxrzyA25rLKZdXtywcnYXDczr9r07y6gO4Lbl8cjm1UpG176/0zp23F6yMlMYenuCdAHD7BOOffKrT/9eNFW+BfLzdmIknprTjv7xTjbuavCsAvjL9T3o69b+d0PzrN37S+KaEo3+gMND4E5Oa/M4mNe5uWmspiAPeLQCrxg3w7h/vWutp7rUZLbw+t+JjjKsWjgCwnjC3GgAIRwAgHAGAcASAmynmJcBXbe/evb4tv3zkyBHNzg6HYyy/DBCOWLcOHjyop556Svv379eBAweu+X6vvPKKXn31Vf3whz/0gQmstopGW+1mIVg9//zz1c1y9OjR6rnnnqusyuT1pa1W40WgrV47dOiQD7LV9PLLL/vw5fWmEY60NVEpHj58uLqVXGVKJUkjHGm3ZZuamvLd3a/KzMxM9eyzz/Je0AhH2u3T9u/ff8urxat58cUXfVDzvtAIR9pX3o12VdvtxAU1AUlbaWMQOG7YoUOH9PLLL8uC6LZ6Xm6o0NGjR/1X4HqxKg9uOBiff/752/o5ugHkjz/+uI4dO8YbBsIRt6Yyux0rxitxg8affvppZtqAcMTqcoHouqxrIRiXuBk2LiCBa3FDe8hg4/qrv/orPfjgg2vqObs520EQ+JAErgVnpmjX1dw4wrXMDTnifaR9WaNbjXXfnaZ7jZVgKA+uy3PPPbemg9FxKwG5lYGAL0LliOs6ZueqxvXADevZt28fbyqoHHHj/vAP/3BdBT3VI6gcccNu9FhjM0lW5Xn1smzF93WL5j7zzDO8ubgiVgLHNXFV1o0ea7yRIFuNwHU/k6sgmTkDutVYse9+97vr8ue6nm0aQDgCGyZE1mvog3DELeDmUK/14TtUjiAcQYBcBxf6LGkGwhErcvfdd6/rn29pz2yAcMR1d6v5+UA4AgAIR9DtnJyc5E0G4QjCkW41CEcAIByxWtb79LpXX32VNxmEIwhHgHAEAMIRdDtXhg23QDiCbvUG/PlAOGKVHDlyZF0HI+EIwhErDsf1GiB0qUE4ghC5AobxgHDEDXnppZfW3c80Ozvr95EBroQ9ZHBNXIi4rvWNTCVcrU22buRncgEJXM3LGu5ASKN9Yfv+979frSf79+/nfaVdrb3sutXH+P2Aa/GDH/xg3VRa7hjqej4Ljxt2LLI/9ln7bV4LfJl+v69ms7kutk34gz/4A4bw4Iv8cWB/uPWaDvNa4FodPXp0TS9j9sILL/hwBL7A48Howoy1KV4PXAtXOb788str8rm7wwL79u3jRAy+8GNibVM0+suDowoS+FKuO+p27XvyySfX3HP//d//fY414sv8ibULY9cOirNTtOtshw8fXlNnp5977jneN9q1NJeHCpYfSrK2l18auFauenTHH93X250b0/jMM8/wpuFLO0YanqS+ZIbMH/O64HqP3z399NO3/fE7143mBAyu0RVz0P36n6Gkpl1vc4OpZ2ZmbsuutOv6W2XL+0S7lnbJienllaP79f9H/OLASiqzxx9//LY70eGG7LjnxZlpXKM/GuWgqB5pN7W5Cu3555+/LSrGZ599lveEtuKq8WoO8ULRbqQdPHjwK+tmu240c6ZpK2iHrrW8ZDEK2pqqIl0YUy3SVtiua0YD3WvaTWl79+5d1ZB0oehWC+KkC201u9OXO8ALR7uZlaSr7G7WwPEXX3yxOnToEK8t7UbbgasFYHANxx+f5yQWbiY3aPzgwYN67LHHtH//ft++aCD50iZYbksDd0ac1btxk7jBry+sNBwJSNzS0HRBuYTNr/BVBeO1hiMBCWBDBaMTXeODudG9xzWakA0A6zkYr6dyXHLA2oti7UcAa4ub+eJWHnnlWu8QrOCbTI0C8gCvN4A14JVRMF7XPNKV7FvtvsHTo/KUSasAbudq8Q9GeXXdWRXdwDd2xyH/V2sDDVcRb/BeALhNQvF/tvb71v52pQ8S3KQn47raz1r7Z2LBXABfjWMarsf4g5vRqw1W4Qm6M9rfHX3lxA2A1a4S3ayAl0Zfb5pglZ+4624fsPbYqKI8wHsJ4Aa8MqoQ3xhdXrVFRP9/AQYAeeCKJl919FAAAAAASUVORK5CYII=;" vertex="1" parent="1">
          <mxGeometry x="110" y="140" width="57" height="119.58" as="geometry" />
        </mxCell>
        <mxCell id="bY_rfbGoF0togMvtseXg-3" value="Line" style="text;html=1;strokeColor=none;fillColor=none;align=center;verticalAlign=middle;whiteSpace=wrap;rounded=0;" vertex="1" parent="1">
          <mxGeometry x="118.5" y="259.58" width="40" height="20" as="geometry" />
        </mxCell>
        <mxCell id="bY_rfbGoF0togMvtseXg-6" value="" style="shape=doubleArrow;whiteSpace=wrap;html=1;fillColor=#d5e8d4;strokeColor=#82b366;" vertex="1" parent="1">
          <mxGeometry x="180" y="187.29" width="70" height="25" as="geometry" />
        </mxCell>
        <mxCell id="bY_rfbGoF0togMvtseXg-7" value="" style="shape=doubleArrow;whiteSpace=wrap;html=1;fillColor=#d5e8d4;strokeColor=#82b366;" vertex="1" parent="1">
          <mxGeometry x="380" y="187.29" width="70" height="25" as="geometry" />
        </mxCell>
        <mxCell id="bY_rfbGoF0togMvtseXg-11" value="" style="shape=image;verticalLabelPosition=bottom;labelBackgroundColor=#ffffff;verticalAlign=top;aspect=fixed;imageAspect=0;image=data:image/png,iVBORw0KGgoAAAANSUhEUgAAAPoAAAD6CAMAAAC/MqoPAAAAkFBMVEVHcEwGx1UGx1UGx1UGx1UGx1UGx1UGx1UGx1UGx1UGx1UGx1UGx1UGx1UGx1UGx1UGx1X///9E1X+C46rw/PXB8dXB8dRE1YAWy2Bk3JU10nXR9eDh+OolzmqD46qT57Vz4KBy35+i6sBU2Yqy7soVyl/Q9N+h6r/v+/Rj3JRT2Io00XQkzmqS5rTg+Oqx7cq3PbV5AAAAEHRSTlMA8CBQkMDQgEAQoOCwMGBwFURCjAAACAxJREFUeNrl3el6qjoUBmAQqDjVpIXDPDh03NP9391p1VpFqSRkJYvk+7cf2ZW3GUmBWBZrfH85Rpel71uQGTljzyZoY3tjZwThdqYzMoDMpo5g95wMKHNh+pFrk4HFdkXUfN8jg4znGwrvjR8NGL7D81b7iUsGH3fCVddnRIPMfCOLnK/gF3dEm9wtWOT3NtEo9n13uUs0i9u1mU+Jdpl2avCTO6Jh7iamyrvYdZXftusrv2mfEo0zNWpU6zzG3RPN0zq3Wdi60+2FeV3cja7OJQbkanP3iRG5cv0+mZlBn03MrO5Xq/yIGJPmWqVnDt0zso+71tN5JtE9Ywv9vNjnZtE9I7v3Zifvmkb/Httt0+j28Z4JYlwcMzu5z8wPdGJgjK3vXzV+aiJ9vzo7M5E+M3I+8z2rccykfzb2sZqvTqNDUjXfP5Z8vRpHm7IKw4A2kodhVW4i2ZcwkmaxaVJdkpsJwiqRVAtsOROaqAxp9wRhKaP84Vcp0pqFfUxYQ5e+D0tPq5xyJ69SWPoSp/tLX4Cd3hJqbIuTjApJlsRQoxsIvVgHVFiCdTEYehRSwdlGg6CLh+96/Ag9HQYOgRdMT8HgO3yBlh5XFDhVjJOeBBQ8wQYhvQiplAir9cLodUAlJahR0eOQSsw2xkPfBFRqgggLvaTSU6Kgy63s4ip9f3qaUSXJCtX0NKCKEqRq6Ykyee/Oric9oUqTqKMrlvez96Irl/ey96EjkFO6UUFPMch79PP89DSgw7Zz0+OcIkkWS6ZnFE1CufSKIkopk76hqBLJoxcBLnoQS6OHFFm2sug1RZdEDh1bdees8jz0LUWYtQx6RFEmkkDPcdJDeHpCkSYBp+dY6Tk0HW2hMxc7Mz3HS89h6YgLnXXFhpUeYqaHkPSUok4BSK9w00tAeoCbnsPR21coVg+7PLd8/Lz/eHX458v+n++v3Y67yOV/PCQFo6/b5G+HA57+Xpc/HT7fm16+ft5D47i/X8e9nR93kV8t51GB0VsH9eMR/139+PHc+nA8/PH8uP+OHzSOu4iAGs9Eb+/feemN43vTWfp4Jnotnv77VSw9AaJvxdPJu1j6GogeANDJH6H0HIZeUAg6eRZJpzEIfQNDP2nunelvAtapWOglDP2kubfRfz+e54+IuSwLfQ1E/27ubfSH7nPZCoQeQtGfnsXRQxB6DkUnv16R0ykY/avbEkCnQ6OTF3Pp++beRn9qXLSuJNMjSPq+uQsY14dCf3/6/vErMbO5odAfTxcj/plFPy7v7Fd4sNILCPrrr9NVJ6x0AkGnzydfsDKLTv+c2s2i0/fW7+IZ3HIQeghDf/19k84wpQmHRD9r7r0nslsQegVEP2vufekwSxU1FP1Kc+emJyD0CIz++iSMnoLQYzD6yVymLx1oHT67/YVvjQXE52707yM6LUv+E3FjBRN9zf673l+H36Y3x/Ab4/qLgJsLmOgJRzV76EhvNHfe2VwERI8B6Y3mzkkPoP7I3N7YBdDPmzsnfQtGryHp9Fd/egJGL0Dpf5/60pkeCGC8gyqDpNN/felMzwMw0usbtxFdZvXTbUTN8Xl1flHKfBtRBEiPb9w8dpHVTzeFvbT9GM6bx9juD2a9R3aN+Y7BBJSO+SbZgIDSMd8aXQLTI7yFHgPT8RZ7TaDpWIud9akfnufctjjpGwn0AqWc/dUFPM+0lhj7uEIKHeMDXzWRQ480qO68by2ohl/duV/TkeGic72JipOeonr0aU0k0lE94Mn5OiLutxFVw27ofeh4JnW8r1nkp8fZgLu4fnQk7x6riAI6im5+TZTQEdhDooiu3J7FyuiK7b3kvd8erLKf7yfv/85odfaechEvSV8PUy7k1fj1IOVidgVQ0Nn1lwvaCyLeDk8ubPOTWmrBC9kCRNi+L4XEv8qshZyxwI2OpBV8SbDRSSGnxScEH52QCH5+Ewjb1U30VnYJ8EV8Jm7/UvEbGILuCRIi3c8NvuQrkacJs1lpkqHu4CDpHx2e+IuaXPA2xWOwnedjwUUfit6kF47+OdCXGc5mDk//1NdCJrgCd6uURv+s+Zuqb+FnEJsyS6Dv+WUYIKrsEun7yh+Va45fAERll03/av2Z+squhk7Ytqwuwc5CCb37/Wd5RHSjd/zr/DYm+tG73H8WJKCnoIpOOsxcC2IovYY+A2X0QNpqzMBKvZRwBijpEoocKb2Ucwb4BrcwJXrT2240DWppp6CKXqoZyzHQQ5mXp7jo15bqq5iYQFc1oqmnRwq7t2/6EkMHL7mu77K0fPUdfJiqOAdfPR1yJeZnuqWWnidEUSzLshW2dXVwYn/QPVVTmmC9IerifdDVDOxplBKlGX/QHWJknA/6yEz66INuzUyUzz7l1tRE+nRHd0xt6paaSY3q7OXW3Dz5/EB3jK3vauaySmN/yS3XNLp7pBs3qxkd6WouYdR3cp/xzaL7J3Szit07lZtV7GeFblSxnxe6UZ38qEE3Z2x3m3JrYshl+2xyQTelp/OtK3HNrO67Kn+nv/xucpVuLbS/grMXVkvudaffW61xTWzoh2i9Ojv9Sa51V9fWxelvvyXX135brqu9i/zDrmFfN+0k13GMc63OuddqXmffWwxZaNTg7xYWUybaVHp3YrHG12LtYuZbHNGh4DmK/LBWOfB1Wm9k8ccfMN7zrX7x54bCd9XeHdwob7sjS1CcQRX93LGExpkOYrCbTQW7DzXfGXuI677tjZ2RBRnfX47RZemz92r/A8J019uyE56IAAAAAElFTkSuQmCC;" vertex="1" parent="1">
          <mxGeometry x="270" y="154.79000000000002" width="90" height="90" as="geometry" />
        </mxCell>
        <mxCell id="bY_rfbGoF0togMvtseXg-12" value="Line Server" style="text;html=1;strokeColor=none;fillColor=none;align=center;verticalAlign=middle;whiteSpace=wrap;rounded=0;" vertex="1" parent="1">
          <mxGeometry x="282.5" y="259.58" width="65" height="20" as="geometry" />
        </mxCell>
        <mxCell id="bY_rfbGoF0togMvtseXg-14" value="" style="shape=image;verticalLabelPosition=bottom;labelBackgroundColor=#ffffff;verticalAlign=top;aspect=fixed;imageAspect=0;image=data:image/jpeg,/9j/4AAQSkZJRgABAQAAAQABAAD/2wCEAAMCAgICBggCAgYIBgYGCAgICAYICAYHBwYICAYGCAgICAYGBQYIBggFBggGCAoICAgICQkJCAYLDQoIDQYICQgBAwQEBgUGCQYGCQgICAgICAgICAgICAgICAgICAgICAgICAgICAgICAgICAgICAgICAgICAgICAgICAgICAgICP/AABEIAkQEAAMBIgACEQEDEQH/xAAeAAEAAgMAAwEBAAAAAAAAAAAACAkFBgcBAwQCCv/EAFUQAQACAQIEAwMGBwoMAwcFAAABAgMEEQUGBxIIITEJE0EUFSI2UWEjMkJxhLS1JDVicnR1gYWRshYzQ0ZSU2OCkqGxxbPBwiZUVaLh8PEXJTRzg//EABsBAQACAwEBAAAAAAAAAAAAAAAEBQIDBgEH/8QAPREBAAECAwQHBQYEBgMAAAAAAAECAwQRIRIxQYEFIlFhcbHBM1JykdETMqGy4fAGgoPCFDRCYnOSI8Px/9oADAMBAAIRAxEAPwC1MAAAAAAAAAAAAAAAAAAAAAAAAAAAAAAAAAAAAAAAAAAAAAAAAAAAAAAAAAAAAAAAAAAAAAAAAAAAAAAAAAAAAAAAAAAAAAAAAAAAAAAAAAAAAAAAAAAAAAAAAAAAAAAAAAAAAAAAAAAAAAAAAAAAAAAAAAAAAAAAAAAAAAAAAAAAAAAAAAAAAAAAAAAAAAAAAAAAAAAAAAAAAAAAAAAAAAAAAAAAAAAAAAAAAAAAAAAAAAAAAAAAAAAAAAAAAAAAAAAAAAAAAAAAAAAAAAAAAAAAAAAAAAAAAAAAAAAAAAAAAAAAAAAAAAAAAAAAAAAAAAAAAAAAAAAAAAAAAAAAAAAAAAAAAAAAAAAAAAAAAAAAAAAAAAAAAAAAAAAAAAAAAAAAAAAAAAAAAAAAAAAAAAAAAAAAAAAAAAAAAAAAAAAAAAAAAAAAAAAAAAAAAAAAAAAAAAAAAAAAAAAAAAAAAAAAAAAAAAAAAAAAAAAAAAAAAAAAAAAAAAAAAAAAAAAAAAAAAAAAAAAAAAAAAAAAAAAAAAAAAAAAAAAAAAAAAAAAAAAAAAAAAAAAAAAAAAAAAAAAAAAAAAAAAAAAAAAAAAAAAAAAAAAAAAAAAAAAAAAAAAAAAAAAAAAAAAAAAAAAAAAAAAAAAAAAAAAAAAAAAAAAAAAAAAAAAAAAAAAAAAAAAAAAAAAAAAAAAAAAAAAAAAAAAAAAAAAAAAAAAAAAAAAAAAAAAAAAAAAAAAAAAAAAAAAAAAAAAAAAAAAAAAAAAAAAAAAAAAAAAAAAAAAAAAAAAAAAAAAAAAAAAAAAAAAAAAAAAAAAAAAAAAAAAAAAAAAAAAAAAAAAAAAAAAAAAAAAAAAAAAAAAAAAAAAAAAAAAAAAAAAAAAAAAAAAAAAAAAAAAAAAAAAAAAAAAAAAAAAAAAAAAAAAAAAAAAAAAAAAAAAAAAAAAAAAAAAAAAAAAAAAAAAAAAAAAAAAAAAAAAAAAAAAAAAAAAAAAAAAAAAAAAAAAAAAAAAAAAAAAAAAAAAAAAAAAAAAAAAAAAAAAAAAAAAAAAAAAAAAAAAAAAAAAAAAAAAAAAAAAAAAAAAAAAAAAAAAAAAAAAAAAAAAAAAAAAAAAAAAAAAAAAAAAAAAAAAAAAAAAAAAAAAAAAAAAAAAAAAAAAAAAAAAAAAAAAAAAAAAAAAAAAAAAAAAAAAAAAAAAAAAAAAAAAAAAAAAAAAAAAAAAEYvEd46uUfDpxnB084tw3PrfeYaZ9RnxZMeP5PjyXyVrGPFkpPynJtS1prOTDWImn05mbRUJOjROk3W/pf1u03z70312PVViI95h37NTp5n8nNpr7ZMXnvEWmOy20zW1o829gAAAAAAAAAAAAAAAAAAAAAAAAAAAAAAAAAAAAAAAAAAAAAAAAAAAAAAAAAAAAAAAAAAAAAAAAAAAAAAAAAAAAAAAAAAAAAAAAAAAAAAAAAAAAAAAAAAAAAAAAAAAAKk/ac/XP8Aq/Sf39StsVJ+05+uf9X6T+/qQRh5W5t5n5H1NOZeT9Vl0eqwzvTPhvbHkr9sd1JjetvS1Z3raN4mJidk9/D57T+9OzlnxC4N48qxxjTU8/42p0VI8/jM5NNEfCIwT52V5AP6B+UuceVefNLTmbkzV4dbpcsfQz4b1yUn03iZrM9tqelqW2tWfKYiY2ZlQt0p61dTeimq/wAIOm+uyaS8zHvMUT3afURH5ObT33x5o23iJtXurvM1ms+a6bw+dVZ628u6DqfkxRhvrcVpyYq7zSmbDny6fNFO6ZnsnPiyTTeZmKzXeZneQdDAAAAAAAAAAAAAAAAAAAAAAAAAAAAAAAAAAAAAAAAAAAAAAAAAAAAAAAAAAAAAAAAAAAAAAAAAAAAAAAAAAAAAAAAAAAAAAAAAAAAAAAAAAAAAAAAAAAAAAAAAAVJ+05+uf9X6T+/qVtipP2nP1z/q/Sf39SCJYAC5j2fX1A4R+n/triKmdcx7Pr6gcI/T/wBtcRBIgAAAAAAAAAAAAAAAAAAAAAAAAAAAAAAAAAAAAAAAAAAAAAAAAAAAAAAAAAAAAAAAAAAAAAAAAAAAAAAAAAAAAAAAAAAAAAAAAAAAAAAAAAAAAAAAAAAAAAAAAABUn7Tn65/1fpP7+pW2Kk/ac/XP+r9J/f1IIlgALmPZ9fUDhH6f+2uIqZ1zHs+vqBwj9P8A21xEEiAAAAAAAAAAAAAAAAAAAAAAAAAAAAAAAAAAAAAAAAAAAAAAAAAAAAAAAAAAAAAAAAAAAAAAAAAAAAAAAAAAAAAAAAAABq3UXqhyB0l0luaeomuxaLT132tkt9PLaI37MWGsWyZ7zHn2Y62tt57bRMq6PEP7TDnLnD3nLHQ3Hfhejnes8Qyds6/NHpvirE2poq2jfzicmb8WYvineoLQBQVyr1X6lcka7/Dflbiepwa6bd1tTGW9r5p33mM3vJvGorefxq5YvW3xiVgnh49pvy9zB7vlfr7irodRO1a8Uw1tOkyz6ROfBHdfS2t5b3p34t5mZjBWoJ4j5OFcW4Xx3DTjHBM2PUYM1Yvjz4r0yYstZ9LUyUtat6z9sTMPrAAAAAAAAABrnO3ULk/p5h+c+bNTXDE79mPztlzTHwx4a73yTHlvMRtXfe01jeWNVUUxnVMREb5nSI5saqopjOqYiI3zOkQ2Lb4vKGXUPxe89cYye55BrHDtPWfK96Yc+pyffeMtMuHFE/6Fa3mJ/wApO+0ZjpZ4160vHL/WDFFZ32rxHBSe2Y+E59NXea/ffDE+fl7uNpsq6OlMPXXsRV/NMZUz4T6zER3qunpTD1V7G1PxTGVM89/OYiO9LUfFwbjXCOYcNOMcCzY9RgyRvTLjtW9Lx91qzMTtPlMesTvHwfatYnNaxOesAD16AAAAAAA8TMR5yDyIo+If2hXSnpD7zl3kea8b4pXes0w3j5Fpren4bV17oyWpPriwd87xatr4Z80TOVfaeeILheu+duaaaTXaK1vp6CMNdNFKzPph1OPvy0tEeUWze/j7az6gthVJ+05+uf8AV+k/v6lYR0F8WHR/xCY4x8o6n3Ouiu+Thmo7ceqptH0ppXumupx19feYbXiI27oxzPar29pzMTzn5f8Aw/Sf3tQCJgAC5j2fX1A4R+n/ALa4ipnXMez6+oHCP0/9tcRBIgAAAAAAaZ1R6w9N+jGknmTqPrsejxefZW092bUWiPxMOnpFsme3pvFKzFY87TWImYru62e0+6lcw550PRHFXhWjpPlqc+PBqdZqPvtjy1zafT1mPyIrlt8feefbAWiCvbw9+0+w6macteIXDGOZmK14vpsc9n59To6bzX78mniY9I9zG02T35c5l5e5v0+PmLlXU4tXpc0d2PUYb0y47x916TMTtPlMesTvE7TAMkAAAAAAAAAAAAAAAAAAAAAAAAAAAAAAAAAAAAAAAAAAAAAAAAAAAAAAAAAAAAAAAAAAAAAAAAAAAACOXiG8cvR/oP38DwZPnXi1N4+b9Nevbht9mq1W16abafWkRkzR5fg4ie4EheIcR4fwnFfifFctMOHFWbXy5LVx48dYjebXyXmK0rWPOZmYiEIfEP7TPlPlX3nLHQnHXiWqjes8SyxaNDhn0mcOPel9Zas77W/B4fxZi2aJmEJOu/ip6v8AiDyz/hnqvd6KLb4+GafuxaTHtP0Ztj7ptqL1/wBZmte0TM9vZE9scgBs3ULqXz51W1duaeoWty67U2/LyW+jjrvv2YsVYrjwY4n0x461rHn5ebWQAAB1fob4nervh9ze/wCRdXM6W1u7Lw7P3ZdHn+2Zw90Tivby/C4bY8nlETaY8psy8PHjy6RdcezgHFrxwji19q/I9RevutRefhptXMUplm07RGO8Y8szO0Uvt3KdgH9EAqF8PHtA+rPRv3fL3N0241wqu1Yw5rz8r01fT8Bq7Ra01pHpizRem0RWs4t5lZd0V8RfSbr7g+cenmsrfLWsTl0OTbFrNN6f4zTzaZmsTO3vMc3xTPlF52kHTAAAAHy8T4pw3guK3FOL5aYMOON75clq0pSPtte0xEf0y5b1F8RnKfKPdwzl3bX6uu8TFLbafDaPKfeZ4i0WtWd98eKLTvE1tOLeJRh535+5t6gZPl3NOeckVnemGu9MGH1/xeGJmImImY77TfJMeU3tEQ5/HdNWMNnTT/5K/dpnSPiq3R4RnPgpcX0pasdWnr19kbo8Z9Iznwdn6l+K6tO7hXTLHvPnE6/NWYrH34dNeIm0x8L5orETH+LyRMSjPx7i/FuP5rcY47mvqM+T8bLktN7z67RvP4ta7ztSu1ax5RER5PdmY7O4fE9IXsVOdydOFMaUxy4+M5y4/EYy7iJzrnThTGlMcvWc572N1DB8X0/vI99X1r/zj/6erOahjdS8tzlKLDI9N+rPPPS7N84cnam2KLTE5MFvp6fP/wD2YZntmdvLvr25IjfttVNDpH4t+Rufu3hHNW3DNbO0RF7fuXNb0/B6i23u5tP+Ty9vnMVrbLKv/NT3Fto9J9P/AL+578WT4L7D425Y+7OdPuzu5dnL8Vnhsddw/wB2c6fdndy7J8OcStxid/OHlXl0j8S3P/TDt4ba/wAu0Fdo+SZrW/B1+zBn2tbBt5bV2vjjz+hEzumd0w64cgdVqRHL2bs1MRvfRZdqaim3rMV7pjNSPL6eKbxG8b9szs6nDY+1f0idmr3Z38u3z7nXYXpC1iNInZq92d/KePn3N/AWSzAABrPUHqVyJ0r0luaeoWtxaHTU/Ly22m9tt+zFjrFsmfJMemPHW158/LyV2+If2mnNXNHvOWOhGO3DtLO9Z4llis63NHpM4cf0qaOto32tPvMu3bMThmNgTb67eKbpB4fMUzzrqveaya74+G4O3LrMu8fRmcfdEYKW/wBZmtjrO09s2mO2ay/EN46er/Xbv4Fo7/NPCb7x8g017d+en2arVbUvqN49cdYx4Z8t8czHcjxxHiXEeMZb8U4tlvnzZbTbJmyWtkyZLTO82vkvNrXtafOZmZmXzgAA9+h12t4ZkrxHhuS+LLjtFqZaWtS+O1Z3i1b1mLUtWfOJiYmJfZzLzTzLzlqLcw83avNrdVk7YvqNRlyZ814rWK1i2XLa1pilYisRM+UREfBjAAABcx7Pr6gcI/T/ANtcRUzrmPZ9fUDhH6f+2uIgkQAACMniI8e3SPoj7zl/gVo4xxam9fkmnvX3Gnv6funVxF6Y5rO++LHGTLExtauPfuBI/jHGeEcvYb8b49nx6bT4azbJny3pixYqx62vkyWrWkR9szCCniI9pxwTgvvOV/D/AIo1eeN624tnraNNjn0mdPprdt9TMfDJl7McTETFM1bboU9cPEv1c8QGb5Xz7q5+T1t3YuH4e7Fo9P8AZ24e6feXiJmPe5bZMm0zHdt5RywGe52585y6kau/NPPesy67VZPxs2a02mI3natY8q4qU3ntx0itKx5REMCADo3RnxBdVuguo+dunWttipaYnLpL75NJqdvhl09piszt5Rkp2Zaxv23ru5yAtz8O/tCelXV/3fLvO814LxW21YplvHyPU29PwGrt2xjtefTFn7LbzWtbZp80rInfzh/PAkl4d/Hb1d6FdnAeI3ni3CabR8h1F7e8wU+zS6qYvfB2xttjtGTFEb7UrNu4Fxw5N0L8T/SLxBYffcj6uK6qte7Lw7P24tZh+2fdd0xmpXy/C4bZKRvETNZntjrIAAAAAAAAAAAAAAAAAAAAAAAAAAAAAAAAAAAAAAAAAAAAAAAAAAAAAAAAAAAAAAAAAAAAAAAAIW+016088dNOGcP5O5K1F9JPGL6r3+oxWmmb3OlrpYnDXJWYtjrqLams3msxaa07d+294tVjMzbzlYj7XH05f/rX/s6u4AAAG09Oel3UDq3q68rdO9Dl1uottvXHH0MVZnbvy5rTXHgpv5d+S1a7+W+8xANWEuOavZkeIfl3Q/4QcOvotfmrXuvoNPly/KIjbeYx2z6fDizWpG+9YvEzPlX3m8bxS4twnivAc1+Dccw5NPqMNppkwZaXx5cVo9a3x3rW1LR9kxEg+QAB9/AeYOOcrajHx/lrUZdLqcFu7Hnw3viy47R8a5KTW1fs8p843j4vgAXkeFPqVx3q9ypwzqDzNtOr1OLJTNeIisZcmn1Wo01snbWIrWdROH3kxWIrE2mIiIiIdYR49n59QeEfm1/7Z4ikOAg7zv4mOOdV9RqOX+FXnS8Px2tGPDSe22rxRPb35rx9K3f6ziiYx9tqxMXmvcnEqH4XxDNwrLXX4PWs+n2x8Y/3o3c105cri3TRRVNO3tZ5TlM5bOUZ9k56uZ6bv126aKKZmIq2trLjls6eGs5xxdk2iPKHpyv1pdTh1lK6vTzvW8RMT90x/wBYfnK+Yxvca+TMx2dkczHZ0qh7DG6hjdQyWoY3Up9DOGH1te6Hy4cnwfZqWNm3bKwp1hkyeHIyOh1up0d66vSXtjyUmLVvWZreloneLVvWYmtqz5xMTExLCYcj7K564477+kNdVPYbkxPDN4k+YuaNdj6Xc73+UZMuPJbT6raIzb4qTeceaY2jLFsNck1ybRfek905Ped1ZUq2PCRmvqecOH5r/H5X/R/+2a3b+yFk7uOjLlddnrzNUxVMZzvyyid/He7noq7Xcs51znMVTTEzvyypnWeO8R18anij1fho4bgzcu4KZ+JcTvlx6aMvdOHDXDXHObNetbVnLOKcuGtcfdWJm+8ztjmtpFK7/a5f5v8A9bf9nWy5QY6j9UuoHVvVzzR1E12XW6i28RbJP0MVZnfsxYaxXHgpv59mOta7+e28zLVgAAAH6x48mWYxYombTMRERG8zM+URER6zM/B0DnDw+da+QNDi545y4NqtJodRETXPkx7RTedq++pEzfSTk/JjPXHN/hEg56AAAAuY9n19QOEfp/7a4ipnXMez6+oHCP0/9tcRBIgAFR/ii8evUrqzn1HKHIWe3DeCVvfHWMMzTU67HFpr359RExelM8bz7jHNK9tu285dt0TwAAABuHTzo/1P6s3vpenHDNRr5wxvknFSZpi8t4i+W3bjra/n21m0Wt57ROwNPH28b4HxrlrPfgXMODJptThtNcmDNS+LLitH5N8eStbVn7ph8QAAPq4VxXinA81OMcFzZNPnw2i+PNivfHlxWj0tTJS1bUtHwmJiVkXgS8bvO3U3iGPot1Xmup1GXFktpOIxWKZslsGK2W+LUVrEUyTOnpkvXNWK23pMWjJOTvrWmkR7Pr6/8I/T/wBi8RBcwAAAAAAAAAAAAAAAAAAAAAAAAAAAAAAAAAAAAAAAAAAAAAAAAAAAAAAAAAAAAAAAAAAAAAAACvD2uPpy/wDn4r/2hXcsS9rj+Ly/+fiv/ThCu0AAEoPBL4Q9H4k8+o4/zdnvg4Vw62OmSuLtjNq814m0Yq5LRaMNMdIi2S/bNtr0rWIm03x2tdPumvInSrSV5V6e6LFodNT8jHXaclttu/LltNsmfJMeuTJa158vPyRC9lB+8PE/5xr+p4E4wHKOuXhj6ReILD8n570kRqq17cXEcPbi1mD7IjN2zGWlfP8ABZq5MfnMxWJ846uAon8Q3RXivh/45qOm3FMsaiMPZkw6mK9kajBlr3Y7zTe3ZaPOl67zEXpfabRtaebpa+07+uUfzdpP/E1KJQAALmvZ+/UHhH5td+2eIpDI8+z++oPCPza79scQSGAU/wAwuAVBzWXK9OTl9l/P/Y5D+IJ9l/U/sbl0/wCM+vBM8/bbH/6q/wDqj/ebhlcg0uozaK9dXp52tSYmP6P/ACn4uq6HiGHimKuuwelo9Psn4x/uzvDg8RRlVtRunf4/q5Smc3jMx2dkczHZ2FDOGN1DG6hktQxupT6GcMTqWJ1EzHnDLalidUsbbOH7w5N/pPOs1EzHua/0vkxXmvk/U+fnLbMakuw+ED63cO/S/wBma1ZUrV8IMbc3cO/S/wBma1ZU6vor2U/HP5aXZdC+wq/5J/LQK7/a5f5v/wBbf9nWIK7/AGuX+b/9bf8AZ1yv1d4ADsfh48K3VDxIZrV5PpTDosF4pqOI5p7cGCZiLdla13vny9kxMY6V2jendbHF4s44tH9lJ9W+Ifzrf9Q0IOt+HvwWdHugEU4rosPzhxSsRvxPU1ra9LfH5Nh+lTRx67TXuy7TMTlvDvOq0ul11LaLW0rkx5KzW+O8Ral62jaa2raJi1bRvExMTEw9oCFHiH9mpyLzz7zmborenCNdO9p0Vu6eHZ7eu1IrFr6GbT/q4vijaIjFTebK2+ovTjnPpRr8vI/PumtpdZg27sczW0TW0b1vTJjtamSmSvnFq2mJ8/jExF/aor2l/wBdcv8AItH/AHLgioAAuY9n19QOEfp/7a4ipnXMez6+oHCP0/8AbXEQSIAB/O+AA9+g0Ot4plpwzhuO2XNmvXHjxUibXyXvaK1pWtYmbWvaYiIjzmZiHodE8OPnzZwGJ/8AjPC/2lpgTE8PHsxNRqOzmnxDZfd18rRwfT3jvn47arWY52p9+PTzM+cfhqzE1Sh431s6NdC8FOR+nelxZIwfRjSaOMeLT4fTum+etLVtknzm20ZL2tv3zEzu2vxJanUaXlvXZdLaaW2wV3rMxO1tbpq2jeJjyvSbVmPjEzHxQLVWMxVVqdinfMZ585jSOSnxuLqszFFGWcxnnOvGY0jlx+SXHNHKfhr8Zemjh/MWGsa6lJimT6On4npPWfweWItGfHWd57Z99h84m1Inbav3xN+BfqP4fKX5u0F68T4LW0ROspHZm0vfeK0jU6ebT2Ra81pGXHa+OZmu/u5vWjp2m1Oo0dq6rSWml6TFq3rM1tWYneJi0TExMT6TCZ/jViJ5I41v/wC6x+sYW3CYib0TtRrTlrHHPPhybsFipvxO1EZ05axxzz4cNykwH2cH4NxfmHNTgvAcGTU6jNaK48GKl8uXLafStMdK2teZ+yImVgsnxpS+ze5L5h5g500vNPDsVraXheLVZdRm2n3eOM2g1WmxVm+23fly5omtN95rXJMRtjtMdR8O/sx+N8a93zR4gMs6TBO1q8JwWrOpyR6xGo1Ne6mmifjjxd+SYmYm+G1dlhnJPIfJvTfSU5V5E0eLQ6XH+Lhw1isTO0b2tPnbLe+0d2S82vafOZkGeAAAAAAAAAAAAAAAAAAAAAAAAAAAAAAAAAAAAAAAAAAAAAAAAAAAAAAAAAAAAAAAAAAAAAAABXl7XD8Xl/8APxT/AKcJV2LFPa4ficA/PxT/AKcJV1gAAs99lB+8PE/5xr+p4E40HPZQfvDxP+ca/qeBOMAAFSntO/rlH83aT/xNSiUlr7Tv65R/N2k/8TUolAAAub9n/wDUHhH5td+2OIJCo9eAD6g8I/Nrf2xxBIUBUVai3VUjajjv4hqy+y/qf2OL/iOcvsf6n/rfDqLRhjvlm+n/AB2dNknhGon6OWd6/dfb0/34/wCcR9rWddn99btr6Q9GPJfFMZcc7TExMT8YmPSf6JUdNjatzFW+r8OxzlujKnXfLtOZjs7xwXi1ONYK6yPxvS0fZaPX+31j7ph5zqWKZpmYnfD2GN1DG6hktQxupTaGUMTqWJ1TLalidUsrbOHyvZWd/N636x27fVumCXZvCD9buHfpf7M1qyhWx4Q4/wDa3h0/yv8AZmtWTuo6J9jPxz+Wl2PQvsKv+Sfy0Cu/2uX+b/8AW3/Z1iCu/wBrl/m//W3/AGddOgV3gALR/ZSfVviH863/AFDQquHafDl4r+pnhsy2pyrOPUaDUXi+o4dmj8FltFYr30y1/CafL2RFYvWZrO1O6mSKViAu3HCfD94yOjviCrXh/B8/yLicx9LheptWmaZ28/cZN4prKx5z+D/CRWN7Y8buWfPg0tZ1OptFKUibWvaYrWtYjeZm0zEVisbzMz5RAPYqK9pf9dcv8i0f9y6VHiH9pL096e9/LXR+tOM8QrvWdVvPzdp7fb7ykxbWzWfhhmuOd/8AHbxNVanUrqZzp1d4hl565+1E6nWZ9otftpSta1jamOmPHWtcdMdfKIiPtmd5tMyGrgALmPZ9fUDhH6f+2uIqZ1zHs+vqBwj9P/bXEQSIAB/O+AA6J4cfrZwH+eeF/tLTOdvq4VxTiHA8+PjXCMlsWfT5KZcWWs7Wx5Md4vS9Z+Fsd4i0T9sQC/LqNyXp+ofDs/J2pyzhrqIp+FrEWmk48uPLWe2ZjujvpXeN43jfzj1iEnUfobz702tOTiWH3+m32rq8MWvinefKLxt3YbT5RteIiZ8om3q8+Hj2nXC+Je75X8QeKNPl8qxxfT0mcF59N9TpaRNsMz8cmCL0mZ/xeKsTKd/A+PcE5nwU49y5qMWq02avdjz4b0y4slZ+NcmO1q2j80/b9iHiMLTe1nSYjKJ+sIOJwlF/Wc4qiMomOzvj/wCIc9MfC5zjzj28U5p34fpJ2na9f3Tlj+Bhnb3cWj8rJtMeUxS8JA+KXlHj/PfKfFuVOVsU59Xn0loxYa7d2W1L0ydld9t73rSYrHxtMR8XVBnYsU2Yyp475njk2YfDUWIypzznLOZ45KgehHs+OtnVfLGs5xwZOA8Prba+bV4r01WTafOuHQ393kmf4eX3WPad4nJNZqsq6H+GfpH4fsPyXkLSR8ptXty8QzduXWZ/t7s01j3dJnb8Firjx7xE9u/nPVBJSgAAAAAAAAAAAAAAAAAAAAAAAAAAAAAAAAAAAAAAAAAAAAAAAAAAAAAAAAAAAAAAAAAAAAAAAAAFeftcPxOAfxuKf9OFK61ivtcPxOAfxuJ/9OFK6gASK8PXgb6w9eOzjeXH818JvtPzhqaWic1ft0um3pfU7x6XmceGfP8ACbx2glp7KGto4DxO23l84x5/m0Wn/wCm8f8AJOJz/od0U5N6A8Kx9PuSotOOtrZcufJMTl1We8Vi+XJNa1rvataVitYiK0pSvn27z0AAAFSvtPK2jnKJmPXh2l2+/wDCaqP+sSiSuZ8WHg65V8TOPHxemedBxbSY5x4dXFfeY8uPuteMOoxb1m1K5LXmt6Wi2Ob5J2yRPaqw60+HXqz0D1Hzb1D0VseK1pjFrce+XR6n1/xeoisRFpjz93kimWI85pG8A5qAC5zwA/UHhH8XW/tfiCQiPfgC+oPCP4ut/a+vSEAVGcV1EaavZX8a3p90fGVuau/xAeFrnzkLPm5m5exTreFza163xRNsukx+du3Nhje22KN497XupMR3W93Nu2Oa6Zw1V2bVcRnTRt7XPZy5aTnP1ct05hq7v2dcRnTRt7WXfsZcurOco/gKRzDYOTeMfNub5Lmn8Hl2ifut+TP/AJT+f7m9Z3JXQ+AcW+dcMWyT9On0bff9k/70f891Xi7Wu3HhPpPp8mFUPbqGN1DJahjdS00PIYnUsTqmW1LE6pZW2cPlB7tHotZxHJXQcPx2y5clorTHStr3vaZ2itaViZtNp8oiImZSHrsXg/tFubOHxPrHyv8AZmsWUIi+E3wv82cmaynVDn+vybJjx3jTaPeJzRbLjtjtkz7b1x7Yb3rGLeb91t7e7nH22l06vo21VbtTtRlnVNURO/LKI9Hb9E2arVmYrjLarmqInflMUxu4bpFd/tcv83/62/7OsQRw8bXhd4j4leGaevK+amLifDL5cmnjLMxhz0zVxxmw2vWLTitknFhtS+01i1O2doyTelquVNw2XqB02566Wau3KvUHRZdDqaf5PLXaL13278eSszTPjmfTJjtak+fn5NaAAB+8ObNprRqNPaa3rMWraszFqzE7xMWjaYms7TEx5xLo3OfiR66dQtBj5F5y41qtVocMbRhtase9iPT5RlpSuTWzWdtp1F8s12jbZzYAAAAAXMez6+oHCP0/9tcRVedDvDL1c8QOb5NyJpJjTVt25eI5u7Fo8Hpvvmms+9vWNp91hrkyecT2xHnFynRPpdw7otwPRdMOF5JzU0OKazmmO33uS+S+bNk7N57Iy6jJltFd57YmI3nbeQ3cAH874kj4n/BV1N6GajPzDwnT213ApyXvi1mGJyTpcU2ma01eKsd2CcMTFZyzHubfRmLRNuysbgAAHTeiniN6tdAs/wA4dPdZamG1otl0OXfLo9T6f4zTzaIi0xG3vMc48sR5ReImYcyAW9eHj2gfSXrL7vl7m2a8F4rbasYc94+S6m3p+A1dorWLXn0xZopfeYrWcu26Uz+d9Jbw8ePHq90O7OA8VvPF+E02r8j1F7e9wU+zTauYvfDFY2iMd4yYojyilJnuBcUOTdDPE/0h8QWH33I2riuqrXuy8Oz9uLWYftn3XdMZqV8vwuG2SkbxE2ifKOsgAAAAAAAAAAAAAAAAAAAAAAAAAAAAAAAAAAAAAAAAAAAAAAAAAAAAAAAAAAAAAAAAAAAAAAAAAAr19rfE+74BP8Lif93haF3Rvw/dVuvOo+aenOitmrWYjLq7749Jpt/jl1No7azt5xjr35bRv20tsuo6ndHOmfWbBj4N1N0GPXYsGT3uOLzlpbHfbaZrlwZMWSIvHlavd23iI7ontjbYeXOWuXuUNPj5d5W02LSaXDHbj0+GlMWLHH3UpERG8+cz6zO8zvMgi/4ePZ4dKuknZzFz928b4pXa0Wy0/cOmt6/gdJbeMtqT6Zc/d6VtWmKUsYiK/Rq8gAAAADH8e4BwPmnT34BzLp8Wq02avbk0+alMuLJX7LY71tW0fHzjynafgyACv7xD+zE4dxDv5o8PeWMGTztPCNReZw3n1202rvM2wzPpGPPNqTM/43HERCvrnHknm3p9qr8r876TLotXi/GwZqWpbbz2tG8bXpfbet6zalo84mY839AzTepfR7pl1iwRwXqXw7Dr8dJ3pOSLVy4pn191qMVsebD3eW/u717o9dwcu8AkTHIXB4n/AEdZ+1tekGxfLHLHL/Jmkw8q8q4KabSaWkY8WDHG1MdI9Ij1mZmd5m0zNrWmZmZm0zOUAABwjrH4ROnnU3v4xwOI4ZxC28++xVj3Ga3r+G08TWszad98mOaX3mZt7zbZCDqh0U6h9IsvyXm/TTGK07Y9Xj3vps3rt25YrHbaYiZ7LxS8R59q1Z8vE+F8N41itwvjGKmfDkjtviyVrfHePstS8TFo/PCqxHR9FzWnq1d26fGPWOeamxXRlu91qepV2x92fGPWMu2c1PLJcv8AFPmvLF7/AIlvo2/N8J/3Z8/zb/amN1j8DPDeId/HekGSMGTzmeH5bTOG8/Zhz23timfhTJNq7z+PjiNkPeZ+VOZOS9RbgPNWmyaXPT1x5KzWdvhas+l62+FqzNZjziZc1iMNXb6tyNJ0z4T4T+57nJYjC3LE5XI8JjWmfCfScp7m5Z5384Y3UPRy9xKdZi+T5Z+lj8vz1+H9np/Z9r36lRRTNNWU8EJidSxOqdG5C6S899VM3zfyfppyViYjJqLfQ0+Dfb/GZpjaJiPPsr3XmN9q22TE6Q+EHkHp928Z5pivE9dXae7JX9zYbf7PT23i81n/ACmXuneK2rXHK7wmEuXtaYyp96d3Ltnw55LHC4K7iPuxlT706Ry7eXPJFTo74U+o/Vft4rqKfN/D7bT8rzVnuy18vPBp962zbxPleZpjnz+nMxsnF0o6CdOOj1P/AGY0/fqZja+uzduTU339Yi/bEYaz6dmKKVnaN+6Y3dEeXW4fBW7Ov3qven0jh597r8L0fasax1qven0jh594DR+YOt3SrlfLPC+NcRxVy1na1KRlzTSfsvODHljHMfGLTEwm1VU061TEeM5LCqumnWqYjxmI828DGcv8y8v81Yo4py5qMepxT5d+O0WiJ+y0RO9LR8a2iJj7GTexOesMomJ1hqnUfpZ0/wCrmknlfqLocWt087zEZI+nitMbd+HNWa5MF9vLvx2rbby32mYVz+If2aHOnJvfzN0Pvfiujje06C/bHEMMeu2OYitNbWsfCsY8v4sRjyzvZaGPXr+eXW6LWcNyW4fxHHbFlx2mt8d62pfHas7TW1LRE1tWfKYmImJeld1168JvR7xCY5zc2ab3Gviu2Pien7ceqptG1YvbtmuppX07M1bbRv2zjme5WV4hfBF1h6BzfjN8Xznwqu8xxHTUtMYq/bqdPva+kn7bTN8PnERlmZ2BHoAAezTabU629dHo6WyZLzFa0rE2te0ztFa1rEzabTtEREbzKZ/h49mtz7z57vmbrPe/B9DO1o0cRX5xz1+y1bRamhi0fHLF8sbTE4q7xYETORun/OvUvV05V5C0eXXarJ6YsVZtMRvETa9vKuLHXeO7JktWlfjMLDPDx7MfgHAvd80dfssa3PG1o4VgtaNLjn1iNRqK9t9Tavxpj7McTExNs1bJidMekXTno5pI5Z6caHFo8Pl3zWN8ue0R+Pmz3m2TPf1+le1to8o2iIiNwB8fCeEcJ4BhpwbgWHHp9PhrFceDFSmPFirHpWmPHWtaRH2REQ+wAAAeLVreOy8bxPlMT6TH5vvRI8Q3s6+lvVXv5i6ddvBOJ23tMY6fuDU29fwmlpt8ntef8pg7Yje1pxZZlLgBRD1i6B9VOhOp+Z+o+ivgi0zGLVV/CaTU7fHDqax2Wnbzmk9uSsTHdSu+znr+gzmTljl3nHTX5c5r02LV6XNHbk0+alMuO8ffS8TG9Z84n1idpiYmIlAjxDezCw5e/mfw85u2fO08H1OT6M/wdLrMk71+yMepmY9Z99XaKgrqGX5r5Q5o5F1V+WecdLl0WqwztfBmpbHev2TtaI7q29a2jeto2mJmJ3YgAHQOkHQbqp101HzP040N9RFZiMupn8HpdNv8c2pvtSk7ecUiZyWiJ7aWnyBpPC+K8T4HmpxfgubJp8+G0Xx5sV7Y8uK0elqZKTW1LV+ExMSt28AXVnrL1a4Hl4n1bpbJXBlpj0fEb4/dX1+L3c9822rWub5NaK19/Wv05taJm1sd7Tr3h89nD0w6Z9nMXVGa8b4jXa0Yr1mOH6e3r9HT389XNZ3jv1H0J8p9zSY3S+xYsWCsYMERWtYiIrEREViI2iIiPKIiPKIj0B+wAAAAAAAAAAAAAAAAAAAAAAAAAAAAAAAAAAAAAAAAAAAAAAAAAAAAAAAAAAAAAAAAAAAAAAAAAAAAAAAAAAAAAAAAAAAGs8+dNuSupmn+ZedNLTUU8+20xtlxTP5WPNXa+OfT8Wdp22mJjybMMaqYqjKqImJ3xOsMaqYrjZqiJid8TGcSg3z54IeeOWdTHEel2Suv01p29xlviw6jHWfhN8k48WaIjb6UTSd/yPLed96XeDXDSa8Y6rZO+fWNBhtPb+bNqK7Tb470wzEek+8neYSnFVHRWH29uYmeymZzp+WWc85mFTT0Vh4r28pn/bM50xy3z4TMx3Pj4TwfhXAcVeE8Ew0wYccbUxY61pSsfdWsREbz5z9s7z8X2DG8wcx8C5Vw24xzFnpp8NPW95iI3+yI9b2n4VrE2n4RK10pjhERyiIW2lMcIiOURDJNR5/6qcldNcfynmbPEZJjemnptfPl/i44mNon077zWm/5SP8A1P8AFzrtb3cI6Z0nDTzidbkrE5bffiwzvXHE/C1+620/i0mHHeVeReoPVzU2vwnHk1OS1t8ury2t2Umfjl1F9/Pbz7d7XmI8qzsrbuNjPZtRtT28OXb5Kq9j4z2LMbdXbw5dvk3Hqf4mOdee+7hnBZnQaOd493jtPvssf7TPEVna0etKdtdpmJ7/AFa/yT0H6l8+4bcY4LpuzDFd6ZM1vcxnn4Ri7o3v3fC+0Y/tvCSnTDwu8ncmdvFOaNuIauNp+nX9zYp/gYZ395NZ/Kyb/CYpSXaoiK/Rr6NdGDruTtXpnwj95R4Q1UYGu7O3fqnPsjh6R4Qrq0XEuoXSDWT8nnNw/VU/GpaJiLxv5d2O0TTPjt6xvFqz6x8JST6YeLPgHHe3hPUKsaPPO0Rqa7zpsk/wone2nmfv7qeszano7JzjyJynz9h+a+atPTPTz7bT5ZMUz8ceWu1sc+npO0+kxMeSLHU7wo8z8td3FeRZtr9NG8+52j5Vjj+LWIjURH20iLz/AKHluwm1ew+tudqns/T1hjNm/hZztTt0caf09YTC0+o0+rrGq0lovS8RNb1mLVtE+kxaJmJiY9Jh7FffT3rFz90ryfJ+FZJnDFp95os3dbFvv9LakzFsN9/WaTWd9t+7bZLLpj4huRuo/bw+9vkett5fJsto2vP2Yc21a5furtW/r9DaN02zjKLmk9Wrsn0n9ynWMbRd0nq1dk+k/uXUni1a3jsvG8T5TE+kx+b73kTlgiN4h/Z1dL+qvfzH047OCcTtvaYx0/cGpt6/hNNTb5Pa8/5TBtEb2tOLLMol8q+zN8R3F9d8zcy003D9HW30uITqMOopasT5zh0+DJOa9pjzrXLXBE/G1FtoDiPQHwg9HvD5Sur5d0/yriO21+KamK31EzMbWjDG3ZpKT5x24oi012i98m27twAAAAAAAAAAA0Pq30O6YdcNL8w9SNDj1MVifd5/xNTppn8rDqabZMfntM13mlto7q3jyV39ZPZhdV+WtR8o6N5KcY0d5+jiy5NPpdZgjf0yTnyYcGaKx/lKXpa07/gq+W9pgCvvw/8Asv8AQ6KacyeILPGe0bWjhOlvaMUfdqNZXttk+/Hg7IiYj8LeJmE8eW+WeXeT9PTl3lTTYtJpcMbY9PhpTFjpH3UpERvM+cz6zO8zvMsmAAAAAAAAAAAAAAAAAAAAAAAAAAAAAAAAAAAAAAAAAAAAAAAAAAAAAAAAAAAAAAAAAAAAAAAAAAAAAAAAAAAAAAAAAAAAAAAAAA5/1843reXuX9dxPh1prk93THFo8prGbPiw2mJ+ExTJbaY84nafgwrq2aZq7ImflGbCurYpmqeETPyjNo3VTxVcu8qzfgnJFa63VV3rOaZn5LitH8KsxOoms/Ck1r/DnaYRk4pxvqH1g1kV1ds2v1N9+zFWJmuON/OKYqRFMVI8t5iIj42n1lk+iXTTS9VOJf4O6/NbDipitmvakRN7VpfHXsrNt4rNpvH0pi0RET5SnByZyByl0/w/NnKunrhrO3df8bLlmPjky23tefXymdo38oiPJS00XcX1qp2aM90fT1nkoaKLuM61U7NGe6Pp6zycF6YeETDi7eL9Tr90+UxocVvox92bPWd7ffXFMR/tLeiSHC+E8M4Hirwvg2KmDDjjauPHWtKVj7q1iI8/jPxl9b8Wy46eV5iPzzC2tWaLUZUxz4zzXNmxRZjKiPGeM+M/uH7Hh8/EOJcO4TSddxTLTDjr65Mlq0pX897zER/TLekPpHPNf4g+jfDZ91qOKYpmP9XXPmj/AIsGHJE/0S/Gj8Q/RnXT7vBxPHEz/p01GKP+LLgpEf0y0/bW921T/wBo+rT9vb3bdP8A2j6vb1K6H8i9Tazn4pi9zqtvo6zFEVy+nl3xt25qx5eV4mYjyi1d90S+pnQLnvppNtdmp8q0cemrwxMxWP8Aa4/O2CfTznem+0ReU5+Ecd4JzBT5dwLUYtRj/wBPFemSv/FS1oifufbatbR22jeJ+H2o97C27uu6fej17fPvRr+Dt3td0+9HHx4T596E/TDxPc58k9vC+Yt+IaONo2vb90Yo/wBnmnfvisfkZO70iItSEtOQ+ofKvUjT/PPK2XvrG0Xx2jty4bTH4uTHvPbM+e0xM1ttO022lyPrp4d+SdVpNTzvy7X5FqNNiyZ748cR7jPGOlr2icXlGK1oiYi2Pau/rW2+7kHhU43reG8wYeG6e0xj1ePNjyV+FopgyZqzt9tb442n1iJtH5Uolu5dsXIt1ztU1TlE+Okd/KeSDauXcPcptXJ2qapyifGco79/CeSXvOnNOq5epi0fB8UajW6zJ7nT4Zma0m3bNr5Mtoi00w6bHFr3mImdoised4cww8/cfyaj5vycazUzxqraPe3Co+ap1dck0+TxqIj3v0skdsWnUxbba3l6N5591FOAa3h/Omv8tLp51Gnz5PydPGqrhjHmvP5NK5sVMdrz5VjLvO0RLmmLkHmbTXvzZf5Rkx15hyan5Da2OdJfSX1E2jWVpFYtNsdbe8reck12rE9vlul3aqtrTPSd0ZxplE56THHOOWkb029VVtZRnpO6M40yic9Jid+ccd2kb3YeTOaNTzDTLouMYowa3R5PdajDEzakW7a3pkx2mIm+HU47VvSZiJ85rPnSWxtF5Bz4+Pa3iHOnD/PS6idPgwZPydRGlpmjJmpP5VLZctsdbxvFoxbxMxMN6Src509u/XtjOcp5xqmW5zpz379e2ImYiecagDY2AAAAAAAAAAAAAAAAAAAAAAAAAAAAAAAAAAAAAAAAAAAAAAAAAAAAAAAAAAAAAAAAAAAAAAAAAAAAAAAAAAAAAAAAAAAAAAAAAAAAAAAAAAAADl/ia+rWt/Rv1/SuoOX+Jr6ta39G/X9K0X/Z1/DV5Sj4j2VfwVfllwLwefv3l/kWX9Y0iZqGXg8/fvL/ACLL+saRM1FwHsucofR3sf5pEFfFFe9uY9VW077V08R90fJMM7R9nnMz+eZ+1OpBTxQfWPV/xdP+p4GHSHs4+KPKWPSfso+OPKpJTknnLR8j8pabm7iu966fR0mK7+eS2/ZjpEzvt33mld/PaPh5Ih81c5889XNZGTidr6jNlv24dLji00x907RTDhiZ28to387W23tMzvLvvOei1es6f6a2liZjHj017xH+hGbaf6K2tWZ+yI3+EuI9EOduC9PuL4eZeYKWthrXJSbVjuti95jtWLxXeN+3faYjz7ZttvPlMPE1TM27czlTs0zPPjyQMVXNU27czs0TTRMz46TM+Da+E+Evq1xKsZtTGm00z+RlzTNo/P8AJ8WeI/teziPhF6s6Ks5dNOl1Ex+RjzWi0/m9/gw1/ttCUnBOsXS7mGItwziemmZ9KXyVw3n/APzz+7v/APK2zTarS6yPfaS9b1n8qsxaP7azMJlOCs1RpMz3xVE/onU4CxVGkzPfFUT5Rkro0+r566U62fczm0GswzHdXzrMx6xFq+dcuO/lO091LR9sJwdGOpmHqnw6vHb1imox2nFqMcfi1yVis91YmZnsy1mto3323tXeeyZnV/EL0S4h1Vrp9fy3OHHq9PNq2tlm1IyYbRvt3Ux5JmcWSN6xMbbXyefwn1+HXpBzj0o+V15lyYLU1PueyuK+S+1sfvt5nvw44rvF4jy332+HbG+Fi1cs3dmM5onjw3ZxPjwlhh7NyxemiM5tzx4bs4nx4T2t86tfvJxH+Q6r9XyId+GX6y6L9J/UNUmJ1a/eTiP8h1X6vkQ78Mv1l0X6T+oap5ivb2/GPzQ8xn+YteNP5oTtzYcOorOn1FYtW0TFq2iJraJjaYmJ3iYmPKYn1ad/+jnTffb5H+D33+T+91Pyb13/AP4fv/k+2/w93t9zdBbTTFW+InxjNcVUU1b4ifGM34w4cOmrGn09YrWsRFa1iIrWIjaIiI2iIiPKIj0fsGTMAAAAAAAAAAAAAAAAAAAAAAAAAAAAAAAAAAAAAAAAAAAAAAAAAAAAAAAAAAAAAAAAAAAAAAAAAAAAAAAAAAAAAAAAAAAAAAAAAAAAAAAAAAAAAAcv8TX1a1v6N+v6V1By/wATX1a1v6N+v6Vov+zr+GrylHxHsq/gq/LLgXg8/fvL/Isv6xpEzUMvB5+/eX+RZf1jSJmouA9lzlD6O9j/ADSIKeKD6x6v+Lp/1PAnWgp4oPrHq/4un/U8DDpH2cfFHlLHpP2UfHHlUlT0b0Gi4py3ouG8RpGTFl0sUvjtG9b1t3Rasx8YtEzDiXP3g94xgyW13TvPTLimZmNNntNMuP8Ag1zbTTLEfCb+7mI23m07zP080dSeeOnHLfBNXydkrirmxXrlvOPHk86xScdY95W0V3ics+m87R5+U77Z4aOtPMHUS+p4Fznmpk1GOKZMMxTHjm+P6VckduOtYn3VvdT6b/Tn7PLGZtXdm1XE7WzGU7v9MTv/AE3sJmzd2LNcTtbNOU7t9MTpOfplmjpxToT1e4RM11XCtRbb/VVrqI/onT2y7td1HBOcuVp+UarT6rR2j8q2PPgmP96a02WTvExE+UvJ6Op4VTHjET9GM9F0/wCmqY8Yifor+5a68dWOV5i2i4jly0j/ACeeflFJj7Pw3fasfxLVn74Ss6HddND1Zpfh2uxxp9fgrFr4qzM48tN4j3mLumbRFbTWLVtMzWbU+lbu8tV8VHIXI2m4VfmzFp8WDWUy4q0y461x2zTe8Ral4rERl/B994mYm0dnlMR3RPGfC1k1VOYtPXT79tseoi/8X5NkmN/tj3kY/wCnZpoquWL0W5q2onL5TOXHdMNNuq7h71NuatqKsvlM5cd0wl11a/eTiP8AIdV+r5EO/DL9ZdF+k/qGqTE6tfvJxH+Q6r9XyId+GX6y6L9J/UNU24r29vxj80N2M/zFrxp/NCeAC4XYAAAAAAAAAAAAAAAAAAAAAAAAAAAAAAAAAAAAAAAAAAAAAAAAAAAAAAAAAAAAAAAAAAAAAAAAAAAAAAAAAAAAAAAAAAAAAAAAAAAAAAAAAAAAAAAA5f4mvq1rf0b9f0rqDn/X3gmt5h5f13DOHVm2T3dMkVjzm0Yc+LNaIj4zNMdtojzmfL4tN6M7dUf7avKWi/GduuI9yrylHLwefv3l/kWX9Y0iZqv3on1L03SviP8AhHrcNs+K+K2G9azEXrW98du+vd5WtWaR9GZrExM+ceqb/JXUHlHqDh+cuVdRXNEbd2P8XLimfhkxW2tTz3iJ27Z2naZjzQMBcp2NnPXOdOKu6NuU/Z7GcbWczlxy9WxoKeKD6x6v+Lp/1PAnWgn4nr1tzJq4rO+0aeJ+6fkeB70j7OPijyqZdJ+yj448qkguBdOtD1P5P0fLOqt2X9xTJhy7b+6y17+223xraJtS0R59trbeeyKfHeWefukesr84Uy6PUYrb4s9JmK3/AIWLNXyvW0eUxE+kzFojzhNzobExwDh8T/7vT/zbjr+HcP4rSdFxTFTNjt648la3pb89LxMT/TD2vCxdppqidmqKadeX71K8HF6iiqJ2aopp15cfqhfwnxa9W+G1jFqp02pmPysuGYtP5/k+XTx/yfbqPGL1QzR2YsGipP8ApRi1EzH/AB620f8AJIviHQHo7xOfeanheGJn/Vzlwx/w4MuOI/oh82n8OHRXTT34+GVn+Nm1d4/svqbRLX/h8TGkXI+c/Rq/w2KjSLkZeM5+XqhvzVz71C6sZ6YON5cmryb7YtPjp9GJn4Y8GGsRNpjy32m0x6zOyTnhq6I8Q6f1vzdzXXs1mop2Uw7xM6fFM1tPfMeXvMtorvETPZWNt972iOvcA5P5U5Vj3fLejw6bf1nFjpSbfxrVrFrf0zLL2tWkd952iPWfhH/4brOE2Ktuudqr99ust9jBbFX2lyraq8vnrLVOrX7ycR/kOq/V8iHfhl+sui/Sf1DVO3ddPETyVptJqeSOW7fLc+pxZMF8mOY9xgjJSaWn3vnGW1Ymdox7139bRts5D4VOCa3ifH8PE9PWZx6THmyZLfCsXwZMNY3+218kbR6zEWn8mUXEV0137cUznlMZ5fFmi4mumvEW4pnPKYzy+LPyTgAXa+AAAAAAAAAAAAAAAAAAAAAAAAAAAAAAAAAAAAAAAAAAAAAAAAAAAAAAAAAAAAAAAAAAAAAAAAAAAAAAAAAAAAAAAAAAAAAAAAAAAAAAAAAAAAAAAAAAcE6p+FTl7mmb8b5HtXRaq29pwzE/Jctp+yKxNtPNp+NItT+BG8yjLxXgXUPpBrK21tc2g1NJmaZazMRePjNMtJmmWk+W8RMx8LR6wsVfDxjgfBuYcU8M47gx6jFb1x5KVvWfv2tE7THwmPOPgrr2Cpr61HVq7t3y4clXfwFFc7VHUq7t3y4eMIe6PxfdUdNh+RZ8ely5Nto1FsWSL/xppjz0xzMfDakR90uV6fT80dSNf7rH3anW63L5z8b3tPnadoiKUpHnM+VaVj4RVMrW+Fvo3rL/ACmmlyY9/PspnzRT+y17TH5omIZbS8I6MdCcU6ysafQd8THvL2tfUZojbeKze2TNkjfaZpTeN9vKEWrC3asvta42Y45/WI+colWDvV5fbVxsxxzn1iI5y2/lbgWHlfR6flzTzvXS4ceKLend7vHWs22+28xM/wBLKuR8q+J/pfzRqbcEtkvpfpbYs2oiuPFm/wB+L291Mz6e97d4284me2Ot1tW0d1fOJ+P2ra3XRVHUmJiNNF1brorjqTExGmnB5GA5x575T5Bw/OnNWopgp59tZ88mWY+GPFXe2SfT0jaPWZiPNFfqf4reZ+Zu7hXI0W0GmnePfbx8qyR/GrMxp4n7KTN4/wBPz2ar2IotfenXsjf+nNpv4q3Z+9Ovuxv/AE5pDdSuuPIvTKJwcUy++1W30dHimLZfTy7537cNZ8vO8xMx5xW22yJXUzr5z31LmdFnv8m0c+mkwzMVtHw97fytnn08p2pv5xSHxdPejfP3VTJ8p4XjmuCbT363N3Vxb7/S2tMTbNff1ikWnfbea77pZdMfD1yN047dfNPlmtjz+VZax9Cf9ji864fut9K/r9PadldnexW7qUefrP4Qq87+L3dS35+tX4Qjx0w8MHOXOvbxTmPfh+knad71/dGWP4GGduyLR+Xk29YmK3hLPkTp5yr040/zNyth93WdpvktPdlzWiPxsmTaO6Y89ojatd52iu7ZRYWcNRa3az2zv/RZ2MLbs7ozn3p38uzkAJaYAAAAAAAAAAAAAAAAAAAAAAAAAAAAAAAAAAAAAAAAAAAAAAAAAAAAAAAAAAAAAAAAAAAAAAAAAAAAAAAAAAAAAAAAAAAAAAAAAAAAAAAAAAAAAAAAAAAANY576b8odR8PzdzVgjJ279mWPo5sMz6zjyRG9d9omazvW20b1nZs4xqpiqMpjOOyWNVMVRlMZxPCUJuqPhi5x5I7uK8ub8Q0cbz3Ur+6MUf7TDG/fFY/Lx7x5TM1pDWeSeu/UrkDDbg/BdT34ZrMUx5q+9jBP24u6d6dv+h549/OaSn+0jmLop0s5qyzxXjnDsV8tp3tes5MM3n7b+4yYoyTPxm28yq68FMTtWatnuzn8JjXlKorwE01bVirZnszn8JjXlOaEOh4Z1E6wayZ08ZuIaq+3dktMzGOu/l3ZLTFMGOvpETNax6RHpCSnTDwm8vcA7eLdQLV1ueNpjT13jTY5/hbxFtRMfworT1iaW9Xb+Act8A5WxRwrlzT49Nijz7MdYrEz9s7Rva0/G1pmZ+1kmyzgqaetX1qu/d+vP5NtjAU0davr1d+75cefyevBgwaWsabS1ilKxEVpWIrWsRG0RFYiIiIj0iHsBZLQAAAAAAAAAAAAAAAAAAAAAAAAAAAAAAAAAAAAAAAAAAAAAAAAAAAAAAAAAAAAAAAAAAAAAAAAAAAAAAAAAAAAAAAAAAAAAAAAAAAAAAAAAAAAAAAAAAAAAAAAAAAAAAAAAAAAAAAAAAAAAAAAAAAAAAAAAAAAAAAAAAAAAAAAAAAAAAAAAAAAAAAAAAAAAAAAAAAAAAAAAAAAAAAAAAAAAAAAAAAAAAAAAAAAAAAAAAAAAAAAAAAAAAAAAAAAAAAAAAAAAAAAAAAAAAAAAAAAAAAAAAAAAAAAAAAAAAAAAAAAAAAAAAAAAAAAAAAAAAAAAAAAAAAAAAAAAAAAAAAAAAAAAAAAAAAAAAAAAAAAAAAAAAAAAAAAAAAAAAAAAAAAAAAAAAAAAAAAAAAAAAAAAAAAAAAAAAAAAAAAAAAAAAAAAAAAAAAAAAAAAAAAAAAAAAAAAAAAAAAAAAAAAAAAAAAAAAAAAAAAAAAAAAAAAAAAAAAAAAAAAAAAAAAAAAAAAAAAAAAAAAAAAAAAAAAAAAAAAAAAAAAAAAAAAAAAAAAAAAAAAAAAAAAAAAAAAAAAAAAAAAAAAAAAAAAAAAAAAAAAAAAAAAAAAAAAAAAAAAAAAAAAAAAAAAAAAAAAAAAAAAAAAAAAAAAAAAAAAAAAAAAAAAAAAAAAAAAAAAAAAAAAAAAAAAAAAAAAAAAAAAAAAAAAAAAAAAAAAAAAAAAAAAAAAAAAAAAAAAAAAAAAAAAAAAAAAAAAAAAAAAAAAAAAAAAAAAAAAAAAAAAAAAAAAAAAAAAAAAAAAAAAAAAAAAAAAAAAAAAAAAAAAAAAAAAAAAAAAAAAAAAAAAAAAAAAAAAAAAAAAAAAAAAAAAAAAAAAAAAAAAAAAAAAAAAAAAAAAAAAAAAAAAAAAAAAAAAAAAAAAAAAAAAAAAAAAAAAAAAAAAAAAAAAAAAAAAAAAAAAAAAAAAAAAAAAAAAAAAAAAAAAAAAAAAAAAAAAAAAAAAAAAAAAAAAAAAAAAAAAAAAAAAAAAAAAAAAAAAAAAAAAAAAAAAAAAAAAAAAAAAAAAAAAAAAAAAAAAAAAAAAAAAAAAAAAAAAAAAAAAAAAAAAAAAAAAAAAAAAAAAAAAAAAAAAAAAAAAAAAAAAAAAAAAAAAAAAAAAAAAAAAAAAAAAAAAAAAAAAAAAAAAAAAAAAAAAAAAAAAAAAAAAAAAAAAAAAAAAAAAAAAAAAAAAAAAAAAAAAAAAAAAAAAAAAAAAAAAAAAAAAAAAAAAAAAAAAAAAAAAAAAAAAAAAAAAAAAAAAAAAAAAAAAAAAAAAAAAAAAAAAAAAAAAAAAAAAAAAAB//Z;" vertex="1" parent="1">
          <mxGeometry x="650" y="157.56" width="154" height="87.23" as="geometry" />
        </mxCell>
        <mxCell id="bY_rfbGoF0togMvtseXg-15" value="" style="shape=image;verticalLabelPosition=bottom;labelBackgroundColor=#ffffff;verticalAlign=top;aspect=fixed;imageAspect=0;image=data:image/png,iVBORw0KGgoAAAANSUhEUgAAAMgAAADICAIAAAAiOjnJAAAABGdBTUEAALGPC/xhBQAAACBjSFJNAAB6JgAAgIQAAPoAAACA6AAAdTAAAOpgAAA6mAAAF3CculE8AAAABmJLR0QA/wD/AP+gvaeTAAAAB3RJTUUH4gMBDAAL9owtcAAAWqpJREFUeF7lvXu0pclVH/bb3zn33n7Po4VG0iDJer8RkiwkIIAEmMQxspN4oRAciF9gB1ac5ZV4wQI7xjheiTExYOK1YkyME4MxDg5gGQgPQYQgggiBhRiht5iRxIxmNK+enu6+957z7fyx31X1nXu7pdiOs1f3d+qr2rVr79/eX9WuOueeQ29+7j8HE8AAAUC68apC3FaQVRdmF9HxeTX1PC0xgcDKLjVWbgqACNxJxU42BTIlCQPbwWBHqeDEAHWWkOlIHG2tWAYYRFokoLCO0Db0svZhlrOYKAK4yDERi86t445w6BRjNRPEDCLGZB1JTdQbQiOxEZTaemWCN4sw8Q4fw2KmJU5XgMhAyvBlTpD4e4xBUJbbWhi1IDGHXLsOZiImiUzO1ZlLFSVYLA7YnJVNUAGkA4cMgrBWkSmwUIxjhSnrpAXOLq/svX9bcgbDTQxlJgmvCdwKb7tmJ7YODT5utGogNCPI0BFViNDNMy6J7FFn7WBdE0jWRyKLm+oF4joJIpWzhAgIa5PZnHJX4laKKqKTGgCw8xRT/YYUDSgg6Ij9hSAeEwvyVFR8Y5OljcwAk/ZP8ssd+wBwTmco43BV3qqVmQCmKbE7o7mzQhhG1+o8ChrsnKgYQf4iBresqru6pwzVcCZdHJTU2hA1BU7XVHAXJGKF2XD2WKGCtMYsASDWxzdRQc5vTBY1UNZ+BMjURgRxhq6gaK4EsM6UTK5X4G+jtABRrWKAR+rkcRI/+ePKADABrp+SY1rEKgDsPdt4MIV3qEvGww2IccOpD4n7GIplkh2dTSH1IFPmaUnVa7IhSgUKK3NLWOtNHkAFYEJet+E8jbZBnKriIeqwhYqszmwzCTJOXY+qQPY4azBqkaJS8NZgo3yT2ilMmADRj6yLDm5V2Qzl0LrRGlAA4VZx7nkIIB4hyjGARheqw8ndpj0NTCyR50ScxqkM9TVRuEzvGUTENrVnf6kKvhK6tMGYSZNYOZ17qKSb3arJCXGtaLmIQTqNUAMD16s3UFRYsXWrcDH5wssAe1Kn2rpqbm/tLf8CA1cg28S5zZVKSNUFoq81zzARdNK3oHDr2FllXmNwm6015ArUbVohDtz1PrcVc2W9QZrgGGAwm8YA0KwGDkl6aaQ6yLlfevJ8PMp9kMxjQDzsU0QhfRpsW6tWZR3IBJikZAOVV/cIAOgOSpSdeiMi8jI1xrDWMXrWVEMI9Vn7OXqohbq4qhaGTGIv0surdcSQqEpa4NLp27aEIxyS2SS86iarErjZxUVXIfKXLN6OMhQGytCQd1dXMts6V0RQrolOMDUzrxrRgCdNqLwtUboCgKacxGBzkCfviSm8r/dAHb+q0+KVqUqKmrwhHliQFbcFLLIc75p9RtayNBeFHZSdl5sbH7VEPo4Bz+l5zlHALPmN3Q+QycTCpUSpsrIAAMnIJLOiV6txrGW1Mj2FXKaLJYWia5lqB4jWKtMKZOE7CCxl8MFJ/1vXhnOkZB6VhsXGHb3mUmPeIT1906YdjtrRJKgTwIAdHUSTdJQUpHpaO2gdGzzFSM5lnzeIQuyS9jaWq7CDnEFcgRy8Vg1Acz91t/k8UzIwNO+8lhlOiC3Wi9flgzO1jQDovFkMAQGw6YyjgbMItxnB423SRNSfi/aQqnttSuAyyQymEybvs0SNVgusqmRbbZ3ZczBythoT5sv0L5J883MWrIZlWcnWQtY1ttGlzWYZfQ7Na4T0WOqALrsdpOrs1LJRW6XPmj1izYw1UlgoAbObBorWVvb63aLclXJAEpNCjp/AKICgQVzAEbbQaduQbAz5jc0Eijkv65SIAJ+VhtOTleYosrUxAbOBM5LODGJTtAgnlAeW7CJy4eLYklf/Fz38XyLHRontmgbzJ51YYhrTALskuB2VzeaOBiA4W+ribIx+3ipEDHFkvIRNSAqZd92hzbNmlOu8szbkNkZ+3ltAYUmv1jATPFG3q1XU4CjIkmFvDMUNI4QJAMFyK9NgwClbZNbwa2Z3BmwZd30YjWNUjFOreR7XRFVxOmMVXKkMkltSz07blpsrm7W5o4ianTg6AaTAiCXVusSvvQiSHi0uY8qajI9j11xI3YtC2pFSAxPBTs66zsjjdZQ7NUxJw76HMCh/SVgSGqEIGeLUj+gCCVUDKs080IVqZ2HziYIAnpJEEUZVQfQigAh5JERbdLwZrRBNkLnvUyneErEm8ghrjTX/cid2ME6HVCKO3VQ1yn0WOqU9f4INdlAikxkp84Dceda8exbvGtkc6rAEU3puCShzGw+5kJBK8rylZXMG3SKThg8xQJP1KKccLJjA/yeicIxfuRlYbr05qcjml+BvLUOWx2RHNlLP3qo2DXrnQq2gVAiuzgwC2E77krqtDaz7EE4ivA/JYG7vgKwTpa7Fni4YSTPOzG2+BSDTtfqMqg8SsfcFmkimhC5HPx8mRMLvE6YEZklCU/LOqa+gMkhVRnqiRE74JtyY+KWew65GWoKJEW/hsrUqlC46GSWL62gp7EmN9M756s+fcEohm6f7QkY6x3KjoWI4MCgaUbxa0bXgeEkN6UZwI/KoR+4KQKKcAV2YSN2sJw+sRUC4TMuesssa7XOHZAWVu/E5Vla0AkDWnkSQNfL4Po1Nqbqg1lQxQLbqgYiIbH0a9MrdWZdCoQ4zDwTCMqh1CGXJe1IG9Lmk8HeRJdMAA+Qp2S7FXR8AM0DDBVFB57iB+sfL1kJg0tSUlSdJ5GT4EICGWmWyl7jsbW1RBlJgKUaUbLTK8V0zXKuih2CKBp6tTg/wcjfxDiMcrokcM9SLamJ2EyM/gY4tWWNDVDq3DifTIsLERsxThBjgZ8wKWh5eA4pTlBsMVac0DEfyEYWGyECRLnbyAbPZDDDAUlODNoWQhqgttIoUBq6SYqyp66sACQpjodzetd6CG1gp11AzFxPQ4lELnIBrRTMAMpx5YfTUUw3rJaWTBuNAYeIoyPRHpTb4CGUfNHChUL90u6EdiZlKxRLnJgAMy/1kl8T5wbA0R60fwSSUcqNWF2pLWYq41T+azFGbckIjw7eOkJ0cXZpBcheDmAnwtTsYrMSlW9pW9Mc2hiM6/y05xlVtRHFI4LjLYrLE8Go3DrtWbIwD73EUXCulsa9HEVQZUsG2pdwNs7iwDSpUsWH0cdOVAEkQdJhySGf9OwTZk8LCh16+1zrkWSlHedAH0ScHNlsQyAtbbbjWVCC0147IFeaR6lSKSVKyhLw/QdNAlyK8ZErHxxPT3JZ4Kz7JknGOxcolHK6CtkatzfrUZN3OmdYhTtda0k5dXW2zsutC9uy37xXWLoQ0aQbloVJ9uNcraaCXCDTRDYUtgiMmHR+MsrQos6ccvl1sdC1UDGy46m2HsFfUrKJsLHONVbBbU81N8hSzOVSnRjepVOsApJ0DuxRn4RBaejtn2ZLB4TUBhR2aEI+Vj1sGGJoeMEBTkgrP3AUheRZjiNGo7Rhy35tWzSAboDW/5SbbdLi4DJBeCUjThlq4RJQZxxy7awkGlA1EvVsYNeSsyPkm3YtQdh8taMdppI7DVAIRk72f2BojmAdr3xtR6yN0UtARsW/jQQz4AamYmZLnbF+2geqt1bX3VMPL5TRKF1FcCuRhk/BuKY3s7ym0qWAhpmDr2pLrekoaq15hS5ElmUZ8+j5xDl7dPr+jzBHEysAMOTLoM05jJDlsS5tSmy4l3ph39c4gOM+YOREB2WJ/Ezpcb14VlpGVCakGlyCvcj+R3opXRhN2EZo+KseAPWUOfG4SYSYfPF5KhJxrsS2NWthUOGmjNvtjiowk54TXLE3SSlGzp9zS68f+SiRu4Syx9xA3a6+pRX43oISA2Tmi5NPijATAZAwNcVcYt9OSF6kTylHNpTRgE1cwgcDMpMejCmWjG/vaThhYMiRCnOwpVammftavPuO6kGf3lubSlxZmCAupwJDSNZNpU1u4/lNWBktoB7NGjJ0zW+eWkqQFxwNIxqUpMcFDAE1iU8KGjLGxVWvznkIrhipwutbqDp3arm36GMtxEJUuA8XCMQvjOjHMSeRwJ/7ASfRMThDD60CpisInjiGZQbuyPmEt/Xtm90rZoPuOpRDbfwItrnjoIXXH1B4DzTsXEpMcNLDYSppjmTMNAQJqOuwCzOOJKDGdAB+ArNKAm7qSH6Ms5QUBBtckcczKGiRShkVQB7N6OqoI5YBNcNQ3mxpLVGheJne4l2wuJhu0wzjpKPteUjuS61Rr0rWSQczo/mQWYYEbk+edUJT8EsTexLXNwCIDOXKs2p94oQFdg9wl91ops3EpqQzyaYMrlsLD5ZBYWMtmR2UIsw471lvJRDVVhcTNYU5mteUPEH3S1ztYb6jfAWb/KFllaO88XJcVt1aVx4AdU3E0qk6A+3eABoUKqViJo6Hv3ZWczV1IsHMsdpWdP1zXk2nkmpVRcs/MobLIW+DhxOXUTrnjL7DkcyKeH2QdYxIjAX4RrdSHUhg7M6u2um+yuiDOFaQZoHZy85InyfiLPiNEEwN79C5YIW9R6nTlOwnvDgaYBbGyg5DOJEySf7muhmBFI9kxDoOCkSa5DPVEnrGyFuIlq2pYeGmoVJ1VrDUSDiNYMlF4jOXplJvcJ67SQrSYy1C6LnKYXT5G4Q8sxCdiBFl25COoI/QpYEIjp6HqQiKJi0VeACyfm2FEzyB1GoEHf7/rchNQXF7G1MZWvklZubES0qcbYsYQHxZBjrR3Nu7s4ahig3qorrime5yGxJCtNdJQnDRIgWYtQ680eo5hZEBcO2wFVG9bulKwUozAql7s6zkgaSU7nn7HaaM9BIhEJIyJk3sS4uSKebco2lKQqB+rzv4DZltoXRhJMBNQP+jn3iGkOAuZbq0+LgELpbLeD6ExJtbLScQy8ye8cpuxuEQpqA4LVF05qM1xWUclJOlpJalE2lHRpOLhdlwC0kMcmi/Ijk4hLotkYyAALLlExJ+9cnSqbbXVnodF8o2ShSCTJwX63Q3NQLkAHSFXGxINCAMlmioDHYCGbot0JiaK9LhGVyPXlyMNM6OBdPI5pdSayNSdhv3hjvV27+nEgL/Nz75YOmuUeNR/FyZgmLZsGAYRYNMRE8j2rNoEDRoCariNYGorFrG3OiYgrbVrc4hrpF25XxP0Ljwszt6FQ6M+Wx3Xpp5Ikncm2y7HY02g1UTMpqGPT5b65kyL5D8z5pkBW4L7cV2MxUEWHUw2hCXZwZX0KQDmR2JaxUOdOBYwdH/M8TH3XJ+IcpG7iIPUhZ9zuNFA4pJfCgMrAEGe+dE64QKXx5pEWhvZlVHGdD2Nwp6kuBYYaHO3hlIfRca+0dKHIdps5huPHaXjmQ6Xmk4DYMZ6fzpzboV5hJgPy6VixEcWuCXBEf0os4FDj9CUrj+x2R7PlMaCcO8Ah3Hmwnq1Jt0NIKUqxSOE7A1Vy9WEbTNKe7R6bUcZHgqe9rm2CQByyiIzVh4mEBvPWI0fOfoAaaAGU9ZrKJd0MmrubfrRMojo6Mb27hdc/Mr//PnHh9vyeaPcK8khYJ754Ozqg7/xyFv/0b37Z1fYxp9HMKfDD67XgUzK4hlMslQDCagwO3AQ0Cc6vrH9w9/4vGe//PbD61uyP+gsRuRxTY1pTT/zfR/65Iev7h3YaTYnN8YV8KScVZaeBVJaHy2wWhO91kXaCL6DLHBX8Alg+SNom311xuIQyfCEs6GMeBoP3i0zjxVPjXqS0gdT7suqDjMAmuj4aH7K3We/7GuejZukO+4683/8wEfOnF3N4QUAXRgNogrZcxYpgB4WDaJbg8sYpdO85TPn12/6L190x9POdD1OoLf+wEd5y0Q021dAEjCatLQCeWgkP3GazBmxKLsAbzUhqF4OqrUMyMf8XcDauYYZSud56nwfanDCMbMXyus/y1tMeYR4+EmZi/+JaHvMADZHM01VtQWaZ97bn64/sSl/NcWAq1lxdBOVq9GQ3LGiEqdJh8yTKsPP5Yloc7h9xgsuXLy8P29rwrRMzLzemx6679rDH7+23p/kzysNZHmyfQYKw/QsAskRPlx2lTKb4zKWHDyU7grc2bPSJp6yJGHtXKws8UJlNRSsYmrLYqV54CfnaFxTy0XjRPYMiNKkJ0IEANOaptMFFm0BoGFWKHsHi5VZwz7uA3RfBykYUFWVCJhwfLR9zufesd6b5i2v1qfSfJ4B4NHfv/7ko0f7Z1YY7EmQhgbgkWeg8QlZLXbin2kXj8YDIVCNz7xrRw0+Z3Y66Snb1Uyhlyd8ETOFNcLV8gUw5NE8lf27yY4A9LbVmbXK4SgjukLQ1EzVis7B6nLkL8Akb37h6y/jpmgGgI/97pXN4UwTlQhgv6R7DXTFTOvyg2HmU+OITF5FQH1oThUBLMjE13ErNdlVyCJX/sQRjJwfbZe4a/fFFC/aUZPCNihukhzkUKpJnNFibIZy3EODxSoC86wWaRuL1kTYbvj8Hfsvet1lYJSULREBwL3vfoznBJNHDNg+FJORIdiehClpGleAbGZL3coN51GCYVFxBiCJuWJKfkAqjW3M+CTBTcN4kEUVvcCaPp6IrShI4kRNJlT/k7ruIjWVLMIao7pQI+QBSREhK6dJjKQ/0osMQQSiwxvbZ77s0tOffwHAKVNDANOKmPHRdz+2PljZ+/AAAAKIWWzQNMllqh9l/2W7HoRveRn+PoLMvAYn9aazBYd/9Q5NqFMsPN5BpSc5mIuKRXU21q8E5J2vpCFDUWRh6EXD68SMYTeJbWThEbIUjlCcI0wqzFYLIiaSFDrpxCjBSWCmCduj+RVvuAvAvDmt/jwzgE9+9OoDH3xi72DyEJYlzB6BHCXkSBlmJLXgsAZg1LenaVAqrQOHt/DBxyBDaULg6ZzsrFHhN1Rvh5QVWeAkAumbWR2HPlXE8tsOcfpByc03Rxk+hb/BS43WwSnVRU/YDl1nC68tgtTrls3ylg8urD/3K+4Clr7zdUCC/gd+7eGrDx+t9iaZ6TW82Gb+EYXu5DtwY/VIg21tu86wAJFbETDwofNIm62A3j5BH2BAOXXwglc+2OJgzTTQslHHVTTXcj6P6Ygh6rK7UsG6JdJuYiFVDDhZW3GkIabkwrITkKT4FMET4fD69lkvv+15r74T3eb0RHrPLz7o5YglIor9Oqdr9pM/hK6k4Z4DYok0gpV9gAN1BSCvs5MOBoZGWO9ngzzLHqnFw+FdHGtFNC4dvkmrI8IgX19uMa6CXElyfKuGSnp+iw4NbQN5zuC+0lZSDoCAiY4P59d+5TOIMG9Pqz0zphU98cjR+3/1U/vn1rIswlJDPctQKgr6IRbJ36CQg252J3aHgmGPApvLLA49pAaxBWswWTE/Upma2cPLR+GoN7GUrkZ5eO3RFBpulBVnQJJ/eZDH+Is9TkOhuys2lJfMTRYkMACoo9ULqZvmkBJZ2+P54p0Hr/ujdwM3sR+USLrnbQ8+dN+TnmA5BWwET0JbIpCrJu1cjCXo/MZWzpZ4ryy6qF/8XfsyYJ8gLVIzXuS9G+WHEePU6ac18kCxArIj6pTfr4T0tu+tk4zuarRtyV/+WtCEr8VMtlCkI6NKhGnC4dXNy9/4WU9//gWe+fT7QbH11/7Zx7Pg0plySf4pq/Ug2FmgwZijQBFYRHNp3IaHA7eS/3L6BKkIs00bksB+9IGN4+GzjMZtpQOnEmcW+x0kzfNv4qmvlB2xmLc2nIUYsLWRAJaP7SCeAe1Kzq2ATvQlf+LZAJpZZwdJCD7wkav3vO3BMxdsHQTQ484WIKU2hxgDqd0aKN219nLr8LHibis5h8QXi61TboGVXJ3WJucl/Zcjp6VGZdYa5xwl4j6+jp5+UE46n9o/Q7KzhiKlxV2Hr58ZJ7uw5iMmJXEVtCaiwyc3z3317a/6iqfhZtJ2eSfnV370visPHsp+UIgBS2OaqYbSFQad+8kpngGfWwZR1ak50DuPntVjEU3kf0zRTAUeews+sOl/cRlIzC7XXCPeCRvI20pV7iqteTK7WVIlLTjHYJGFjfAOtqslTbDHihqnyss0YXM0f+mffM400bxdPB1oiBmrNV1/4vhX/8l9B+fLdAUAno1THip6mzeVS9XUm8JIQ+dmg8wsRlyVUs/Y03FBYrLKvAKWQUOjDGCl4vDGUlib18tBuo8Q9dSEm1R592TmTZOqxwCNoK4RG/rar9LYfWhH9mZmUihETESH1+e7X3Lpi978TOAmTttl5/j2H7nv/vdf3T+74uZ7AFBcBcA8FcpJzi5Br+sSSbdxnxLyyUfyr3FdTwxzUTWxfD+Wx1OrvFMGN5F7ijE6luJSZNhWZoB2V8VgsM2vI4aboQKTa9UA0IVQNMX5FDug6TTL+xFNdHht8xV/9rkH59bzhstysEwyXR1d3/7893947+yqTldWVoWyg9QsmzyYmVm21Uhryih+oPpnMcjEiJl5R3gBdhxqA8anGzJ+ZNvPpq++Lo8QXdyY7L/KyV2lEifciOViFbutWyTtJmczbCM0whjgmhN4mqtR5pk/+RvAJsNlMU04vLZ55stu+9L/7DkAaHW6sLLp6q3/8KP3/c6Vg3PNdEXxQpwUiGoGDC/oY+BeDO2MLwvdST5pF2b1n3nFISUGMdm3zbRYLnivVlPzahHqtY3WKcKY+iFSBUHO3BmA/KXJaB68KXJ4CQCB/NFha/AAYSDnMNK7mcEJXL4VoWg3EY5ubN/0F15wcHZ1M9MVr9b0xMOHP/19HzxzftVlV5lklrST9AWONMWnFNpel7ppGzWn+JWK4RanMojCQv5eoSDnyHdLIZucpqY4pdJiA4iT3tSLNmI95CNQSu1vnQiA7erguPs/Z9JndJQPiAjYGXijEmOa6PoTmxd9/lPe+LV/AMB06umKtwDwE9/1/gc/8uTemVF2JWzQYTnrHO7hdG9HS40KuzWy2ErZ5QKP3djRXmmeSo21D3zYRy81r8U7S8xOsRItJmX+a94Asc6kp3VTSzoUp2Xezc4PgNUTUM9SatmktBtVfVzpzd/2UsjSdjqF5y1Pa/rwux79hR/4yPnb97TjQl9FQnUmU4+gatlRss8Vs1lY1aFqulIXTZSuPZuOChB5LDJ0KayduCvEvSuSHMM9cy9iqG7ZUWWOiEeSd7yYIDI6OaekBpfx3iQxDRB3JgHPcTBiYFrjyUePvvCrPvtz3vjUeeZTTlfMOrH90Lf+9ubGvOPEi+yfjsterWTTMRHkfWqOdjbdOVeMondUO/Zv8j4DsPwTuitkuwNgYrkX3oRubS53O/FUXAIeABgmURHGxNAF8VSu2k3M1Vq/MmCpibtQPNMHGYFBTCmDmog2h/MdTz/zn/zVl7nI05Dk7D/xXe9779seOnvbep5tEeqcyfqPrWoQ/wTA5g6KKKpg9z1Gd4FKQLFICULAfsWekJ5h1qqdyFSLBqMuacG16FoX3yXpZEwB7K2QdiO/jDxPgO2q3H858IAYn2X/E24mmujG1c2bv+1ll+8+t92c9p3BecOrNX3oNx75ie9837nb9/STgIOulEqUCu5Q1Za9XiWJf8t2qYpfhNSd4wUlSv+M1VDQCv+9wv58oR+Pojp7KCp23Bdi1AyaERt7ByKPx6c7S1mmog4lOY1AcQb39lUmilcCMXha05OPHb3mjzz9y//Uc+Q4aqFvIZ55WtPhtc33f9O7NkdzWTpHllJuak0i6NMpp1g5QFmPHhL7CXBaA9m1cFb0xFX6nNkMNYHJNjgjhZ2iPUbr1So1rhQVoWyt1Ojr28OoTM2Si57KXwNyQWQT0SDNqjVVO9arB7z7ETwRbQ63t9115k9/1+fCND2ZzJ6//xd+6773PH7mwnreWs+RANHHT0HlpuMhgCKBB+BLO7SfXLKv29G8LbliMbZymBEsy+C1h1g0Y5koKZVoZGNqyzSZd4qrRRlTPskiyDdpMvHyEDdFO6R01qmeHkzCoWqSeZoAXLuy+TPf/aqnPuv88eF2tZ5O/Gw7Azzzen/659/9/rf/8L0XL+9vN3XgRZAJhJjCfb9sNxoRoWcVZ6HkVYNwcRwoqikjpwzV7eRdGPalIP34lVzCqDmrQc6PNGiWWzVWjLTcnJywyazno6l4enLFfATKLwlQssksGBpzxKn6VThME914YvMfffOL3/A1zwawd7DCaYl+/Sc/8aPffs/52/fnLcu4u41jyHEeCyoipHpFwp0hyinHwG1mYt00NV62QuFxT6euiUFjdp3VYlOTAMRMQvVcQDnUIM/akCjfNIb7jowA9FC6N1OLTesM2HHzp0Gz4UIW5UIW8b6OcdImMUlHBki+Cmfe8plL62lFb/m+D2yOR+fsnXsYmAjHh/PPff+H13sTCJx+SCd3GRABLK6hVIVsCcUzSpa82xzFSC45LZQBxbiHBAKR/FEaAeB1tVeRYzBFQHLzKmXVcIkG4aY12mI+CkpPQESVTFvEYBCmXSPuJNWd0rujPVG8Nu2GrLW4v8BEmGf+8e9837xlql9CXa0zEYnh7MW91T7JuzcmDxpiS05nwD/Qw/nF6zy2ybJYBtITlVJA78ne3yUltwdDNokMSX3XDYoLE0D+pSCeMaBZkFSGzyC1MesUyrkuFeUBViOZ6Z6Ug03cKfPiBfLtQRmh+CWqkSyiuLFDRl+UADDO3bZnbqR2UnVXd7rzlstbNxnKjlRTsjv2PtEIDRwqLpN6wlCuGhjOy45UhlpReUi6y8mLHMsy/Bv9oGPSwky04E6LQRFRejUYpcSFrSPJsP3RKMEr2XgWvg3r5kh18YWEO8s4VEVjEeUCgW0aBQDmGaw/oqKdKQkZw5dDgrRih5EhJBDrUBb3MWtc+aqY54WkUAzeDOzO6jO/MlSwQUxmSJpa/sS+kthKccdIm5F07SnXU1FCtdL0N2OUKFfKuznE7R7kJkn1TdaMvU2lWFjEPVqQVvdIyxvk35xtMlpiu7r/8rPWWmxnLjQEQ9FlX6hzdHtBg+ZkMBlF4yiKEBMgYexyhaPJONhfdDIiTtWpxHGtkVMpsSmrV1C4JdkfypiGGZ/xIKenItqBbax3fKg2VDuT98OPxeeapeanpM66vRoZBrLKQraoBnPqZkPHMVZu9JFIWjqndm5COtqPagEhD0CQxZcBQLcv5fNYVP85wgU0DuiSbC0EOWeuDYnVmG6foMWS11E78C2TALCAo+EOHswbBRUA8IQmt8IQZsCmWi8WyhtuskwSIaNjd1cKGNkxTjaKMEUwc/NK6cq55AwjHYA8WgzdPIb5D1aJdcYozksbNOFKZe+ZroW4MdnqdPJcJGLAYh/sh/Tt4cTpyXXvF4dollcOc1L8QAOD/KAFqGt2BwrDPwto0deqzwUhiQTQ4lc8cB5STcr+yB4CkCOVrH+rh/bJAip705JvQgxplsRWa9+xqlcmuMv1qI1cltjdKj+KqpEBlJhYoFaws87ahwmkiZUyKl/13elJ4bdzlFYMtZLbimwkiy7kE0ftmu64DYOB+sMnbMFMQYcpacLeAqsSlQg59YEfbOld3iWGa7JkKhVeHZRnYBvHM8opdY7gZ321x9OGiZZEA8hcnYYtq8n+zyMry2AGwJTO+nqRN08G5+IkH5YOh0tRQICugzlQiUw4s0y5RUy5ScCF21jxXiJVsKjhJRXDomizj9Z2Mh+OTm7YOK3sOuYWdR9cFbb0KuJksm4KeHTOAilVpEKu7ln0Jt8neRQveedZiWBB7bGwA/NdlBXvhklEyoPBSBTag8DsB1cmUowhjae676IOjEwMe4hlI3CClknPViKlfXuOUN1KxKkPQTKMMo5rWYNgQMFAZiqTRisjfVWkyOMqloAU2N0IwyFjxKwf6YXybMFtj0ThYdG55DM3T1krRjcmG6amU1QUNtJGwY9hHZydwSBmki83s83bQBQqygiPK3GnZKfVqD35USWYznmW5kgsWsU6oWT/xmSOItJkWAz2XSFRFMgqGdbgIlra4W5Kv7ts8Ots6agN8G5q/TutBfgd4+0ikaHm9X4Oi3d6lpDd45NA5WEmWcNPcVTkXoEWtG4ZHGUehQQA703sZtYjaLOUh/1dgxKEI+IosL7agERIXwoSrkc+JQkivVByg3XrPaX3fv7qlPp2o3iF9ZH8XmY5Gjjx9KQSvTvVQq4fbD3zqKRqWYE8hjRmVVFzPSFteDrJAUVT05HIMqhjsXTQtCaSBk95skAu3mJ0o/GwtgOeOnuyIukHBIJlwXfyPog1JuWo14RrwTh0m2dB0ilfKgiWhcqxg0A5Bv20JNvv3da28xlJN80aJJ8gApiYmWcCOD+IIpkmmgigCcwM4rl+w4hT7aU1NNDKWQQSrVBLbPmxzmKlTu6MJC7vhUKoiumhKD1HNGsDwX4zwx5L/zxWSCDfVjTxQqmmwREd9VWzTsmnW82YQfKuOSF+IX24lTkNebeSqmXYzKMMm4Amzc6Zed5iczhvN/O8Zd7qF6Ot9mm9nlbraZpAK9LwZ+Ytbw63x4fzfDyv1tO0or2Dab0/EYFnlL9E7WNoJzgFdYGkPdDQUoRhtq0K8BijVBm8pJveMeWe8vBrRx18XdmpnKosSXWhnIupRw0+pEoyKCh3G5Av2NqPbjWkMikONvmGzgTYNw0RYd7y9ng+Ppq3xzMRrdZ05sL6jqedu3jn/p3POHPn08/efteZS085uHD73rnb9g7OrffPrNb707QiAjab+fjG9tqV4yufOnr4E9ce+PDVT7zviU9+5MnHPnljezzvn1ntn10RIf4UJ3keUkiubbzRQkDuA0p2kH13NxEAZkwE5iKwd7JrsOT0QjUzYQA6T/qaUj7o5/GWhXMzluvHbd0iVTzCOgYA8lhrOrFGFQPkKp/K7AG52+SGdGgQEU3AjO12vnF9uzmamfnsxb3bnnrmrueev/sFF+9+4cW7X3jxKZ999tJTDi7cvr84wE569IEbv/eex97zSw/+zi8++PH3XZk3fPbCelqTf3AUplu4GS1uwcWkTnJ7zAPmCHlq2BqtUKl4zUteyyG36NYUqxgmgJns81juMuaQ08ngrmAMuSWsHBFD/RrT7CiqYs0mgMHNVPppkJg6rQiM7YaPDjfHh/M00cXL+8962W1/4BW3Pf/VdzzzpZee8byL52/b67v7b1J6pogu8WOkyCBME93xtDN3PO1pr/pDTzs+mt/79ofe9kP3/tbP3P/ko0fyKS7eCipgsxguIYmUaGI2HvV2BkZGJv1saxbhoUEeMa2jlSgKIi5F2tCtVpe2hQBH8h7bxkTSsBgmo6iSyrAkl7k0MS9NVxbfFDmotSyrspsIRFitaDvj+HB7dGPLjIt37j/zpXe84DV3vPj1l5/3qjvuevb5ppN/z7Hs9ohA08kp4tAeSa329qdXftldr/yyu+675/F/8Xc+8I7/7ePzls9eXMdPgo0fn4ANlD3CURuB5tdGgHlIy91I2WXZcUvUtGbfM5Ucy5wJy99BSGOcZjBnpI4z642uHExuOhUe2TyPN1cnEzOObmyfePhoWtNTn33u+a++8xVf8lkvef1TnvH8C5lNI0mWSLqJr/TYTUT6ZUYeYc962W3f+Pde+8ave84P/+X3fPDXHr5w+z6Iea4R0WOYiaB5TcVRcy4/MHSveeCS9uHcOfs3jbvori4e9C7tCuGSzPXcSkErxTtxFHM4dLVWyNFFgM1Ag95SmWDy3rdCRPjsF116/R97xivfcNcLXnPHuUuxzEkwyWz0mYqkJfIIk+T9JV/4lO946xv+ybf/zk997wf3DqbVeppn/c3WYVRpNJBhSWSxJY0eSgxANyl5ZqKIsOyIFF92K600Ym6IAdKY4cjo2Y8b+iTSFfJ9Z7WVw45chz62rIq8E+t4aVXuSTY1MoatmDcfWhIrn/OGp373O7784Kz+bZb49V9NMA1JdqDzlqcVfc13vOI5r7rj73/ju44Pt3tnVrz8N4kMEPK+2uqCQW/lN9NAiMgL9KsfS1NxmSf9XQcAxqxuMe+IN4n9y23Zh4Dm1i7L09Qk3Phc2mmcI/09nvyB6CkSR3sWxnynprMX1gdnV/OWJZuZJppWdMqvV/h/j+T3vbYb/vz/8LO/+cf/nbOX9o6vb2lN5qGWBDbzFiGubFcJnJR4e5iElJgMYpwGieSaEsZaNQ43iwdG+nJbMMibQmX29ho+XQWsS/TqLer7LHhW53M5GNUAXIjBUxKDGdOKptVn5M8yPmNEhNWatsfzi15/+S/92BccnF9vDmda+KNXh4AA+ZrRiqnHi7tHHl9SHg8REzRAogrzmCikDuHMo4uKZC1cfgiTAZb0OLxfRh6rMW7IzfmOorrflziXUKyFREOFboKo3yn9G0SrvWl7PD//NXd+0w++lpl5Hn+IlJL9dRVx0BjiRTJeZgNaUq4cnV3MeBAiRC6uFkRZVrm4+tbXpTZDmhELswY3lgm55VmzBAcV7oZDuTRNiAEWNPj/Pq32pu2GP/fLn/bVf/3l1x4/Xvr6NW4fZb/neHIZQJPWA2SB5ODHk54kuTCv2w25rttxQCQRO6GkOj6JlIM6jfn8vFRqIidivCtQxWWnzvpAFJ5/k6edT5tWK+KZ//1vfMHr/vhnP/nYcbOrMDcJHn5OSnk6gCRQElyxIkgU6XPqc1lLUskN4kt1oQgYOhdqBDPkD84jgpHHZatJETUKBOqruRZkbBNKvsUsBjYyVCmGBnnayv7bS7a2fN3ffOXtdx1sjmZKuGvsKA6OpvUsYgjyJ74OdCJNwCj1zqgmf3sCMozDIAIITPYJDqYmx9KIHYRn3FOKsqBcx0t6cGLNJ8ZoS35LABjkP4j0/wOaJtpu+PLdZ7/yL77oxtVNv29tvZNdk55jbhkz7rp6kUujymtd2dzU+tSZKb9alBKQPonHuUub1vnAlBS2GOstKCKbIBWNadCxJwbkjQCFZBTT//aRrIBf8Q3Pe9bn3HZ4bavfmG5E/iIuipbsbcq8irQthdnXgy1N55IB6lUw0qLLADHDfkAgeK3LSHwjPx27t9TY6P8sEIF8OrpErOgxg2B/V7Q7FP91EOvGy/99mjoSYbvhvYPpD33D845vbJvTEYbFRjy37geyKgYoJpy2t2ZaFD4cerGIG9gU0Rud/YjNP/PufWNnH8T20oUS10KrQa5lLZK/jBe4Cph89wHnqn9NxOCZ5Yh13vJ2w/6LulT/gcAzbzc87/p1iV0kk9YXfNUz73r++eMbW7JnEogo6kUnhpwceejICsjix4WzHiMCdoDtLnL/sa9xxKQ5VtN9QVoOmcTik04uJKtKF3K2wRGKk3fWcLeD4k/79P0miVMk8cwgff9H/q3WenA/z3x8OB9e29y4urnx5OboxnaemSZarWmaCHwTPwXtRIR5y+dv2/uDb7r78JpmWh3ODR6WlJN4gBVD5WrBoxoYQPZf62Jqqtt7KbJuSRlIn3kXfjHAD/E92GGqcqjDjeRO90wSGtABRLOFlNxFEuzNiX9lIcUMP9GeJkJahzbH8yP333j0/usP3nftUx+79sjvX7/y8OGTjx1fv3J8eG1zdH2WT+2tD6YLt+9fvvvss19x+yve+NTnv/qOaUXynuCugRfotW96xs/9Tx/mOW0CyZxA0Hwi3igRD8GQ1bwU0HLgyHYUnsljrQsav+tt0CjxYLFe6xw/3tllJmW4dO5GGA/cqShKEFsUA/ZegBeS9bohFFQpBH6mST++R5im+CKuoxvbB++7dt89j9/7nsc//v4rD9577dEHblx95GjezPMMZp4msvccMcVnvvmT26vvf8f8q//0Ywfn1y963Z3/wV968Su+5KmLnlkgOSB93mvufPoLLjzwgat7ZyeeCSKAmDyYmuCQWoJ8QWrAzVpbYmvJX5XGilsk2DqSxwOAtbXoyN6Rco3Ldl5WPRO/VJsGXCPU2droDNVCE0JEGBEFBp/R2GLMzGDIu9Ei9frVzcd+98qHfvORD/zfj9x7z+MPf/z69Sc22828Xk/TmtZ708H5FdFKHwr7bDmjPP1EOJDUeMZ73/6pe97+K1/1rS/549/8kps7NCHMW947mF7weZfv++3HD86ttoFmWgaLNxP2CherflLt7huSezkXKPoV8la7Z0C3WAyqS2HJ51hjy6R4LfQJ6LO/MnzWT8im50rWTDnCcrMZJ6HGy7ickhiSU0+r+DToJz74xO/+X596769+6kO/+ehD9107ur4lwt7BtN5bnbttTxYdzXpncHZV2OlE6Rvp6ezFNTP+8V95z/651Zv+ixfewpr4/Nfe8Yv/IPnaZnBzGlUVQjNwl9IIv3pRsUyxEVw5qsbU1BuzT07+CdIcCJEmM9o3YZay7qJi3yavSVENsjxSkPHpp4oyljfnlUzyGSxJvQFsjucP/daj737rg7/zyw/ee8+VJx89AmH/zGrvYDo4uwKD5RcetvUJYvjRD5mjU5u+kirN8xY00cXLBz/2N977yi+961kvu01+pB6nIQKAZ7389r2DlaRZERFkDAx9xNVv+sLxRTcpQBhdRIgJCVau12FseU2OGvcvASmwnNe9ryq2olNkCKv7fKAfBn2Dp0imlGOpsiJe7Lb47q08gWRzJ/kQgO2GP/DOh9/5M/f/9i89+IkPPHF4bbven/bPrC7cuQ+AZ8aM7ewQZZus7FAyxoGuJ26qKs+8Wk9PPHz4s9//4a//3leffkGUbO/Ou89evLz/5GPHq7VlMQAk93ScGHaAZgCSzW1sPqc0MLsRZoMbteDutobM5VarLiKFLf5KR9SiGv9KBnOUu8gJEblLQ2mqbFJJIA+o/lNptnyPvbhMPkXJp4E/+p7Hfv0tv/+un33gY7975ej6du/M6uDMJD/ozTM3vyXBmiDXEVV1Fkw52Wo01JDmLR+cW93zyw9dv7o5e2Edy9kp6Pzte5c+6+DKQ4frvdUsQxI0V0aTG2SPSb5ibumG88AoXs5tJ5KzMaB/FeNb1HrcYLEFHgheHC03FP39xppjd0BDY1EyLWMz/E7tCoacJMkU9dhDN975U/f/yo9//IO/8cj1Jzb7Z6aDM6sDiSdmbn5oRF4ZzE0gsz2TVLRnz3GsHnHvfRlY7U2P3n/jgY9cfc7n3M76FUgnkLDsn1mdubCeZw44gO4xc8fpja5v5PcA4lF2zhCRlc6F9ErIL6mXFB0xAppfppC6hfBhbUcSl1jz2OyGF8ATj21l2pWtJAasj53Eoz+gy8SMecurtWZR73/nI2/70ft+42fuf+hj19Z705lzq0t37svKKAeeBWCXPHqqkuV2697SawhSbOxUUBqnFV177PjKQ4cAhgMMSRKy+CVfw4Dy42eBEIprCtNZYu5JtiYlG5HeJXm+bXWebC8Y3Z/YL0SVNlohDZIRzZVjLZME4gB9gWTNxmmmK555nrFa02pN2y2/86d//+f+4e+991cfOrq+PXN+fenyPs+YZ95uJbF1CAAAZF9uUTWxv3lkvy/Npr0dvNDispTEHl7b4mZIxogP/ZFeYvYM4RklTgcSmcGoMTb6WZkAXnYOGbPfCjMz7MM6TWCNA6VEdKeeXAfO7+KGqPLFYLYCRsFYlN+fsnYQT6RWE65dOX77P/v4L/yvH/3Iv3yMiM5eWO+fWcnbdqVPY0gFCKYIdG5vRlSrUo7IRQqTrQrEYDLQ1dadT+5piAGKXbKjWXUQJ0seNnSP/WV/i6Z3D84YYMDswvXWWQa/peOIsWewbabN5VVjw8rkL1Qb5JId5XL8z527baggQPBVM8aWX+SWp/lTn7j2i//43v/zR+67/8NX9w5W8tfx8s0wDbG/ZI8karBKlAwl1QyayYv+DCDlGmxTLieBY1eeiqyr6e42ZMcQfLpyFwR6BOjc4h1y/wJ9xMGy0hwipYclM+m3dBzSWCjix4BS3EJlKIzVB6pHViTLTtxpSfZFR7k5uilC/hZGFi2J1O/d8/jP/S8ffcdPfuLR+2+cOb+6eOc+z/7z8Y12SmZUXwUY5gVQVYoAlihngiWADeikYMmiQCziUoI60OeUZGkdE1l2kKIlsYkOUrBdPgAGJvtZFoI9GJXcHg6ZlK7Bkoe2XmK53DTJu4KXBSHfFLzHFI2crhRlrSiaZYkygI4kyUt6a0z3U9OK3vP2h372Bz/6mz//wLUrx+curC9dPphnnjdwzqEXyV/asEircMSB9xHkAPnpNPnzDltP6vodkysDRAReXnROTxzJHAAQfD200FHQknMdALGHMEPhZa7b78ScdCUXkPQvsJhg7a0lRv0T+4y5611B4VQw34ypwbLyqafGrk9sHF/opZpM2BzP7/r5B37i73zgfb/+yPZ4Pntx79Kd+/OWt5uZAtKxH80T6gVCVsDODRheXaX4/lQedX8AM6+cSsiTwL2IWyefX9osVFRwD5LpyXBtvGfYb8E/pM65AyPIrv3zCULzXmFUB5PfkmrGmb1Q9M1NVG4DhLHz8uC+dYSuKzMfnFt/+F8++t99zTt4xtkLazq/4i1vtwomkLPaAXEqESIYYti0wBmzN4c/2dxnsDo7GQPb8sdIsj5NYo6o9ro09aiq+l9SV+4WbC7FwCCLOZEaHrY9i9W3u0LYxD4IG9Gia0tOyZZVhxkx0ndGei1ldJRLfCLzlSVgRGCecfb8GiS5uYaT4HiiC1WaD23BkMkFUPOaWZgASqsOR5OXLEalbuFHTG6OfL8A+LCNelkB0rAeNIYzhXojnRabkt3sQ9m62H7mPfXSp16hGUAnbMjtrRRvaPztE4ZFTG5LG0fLKBj66QICwPPM81b6ezRpECKL7YhtKTs1kKyX5C+4TjJqMZ18eAliw+c0HtxBDACebJsM+0NeV06HNoVYDXai6Nw4Tqlx01L1Apv6kYHmR5qsUWdxh8pAI3W6TRMqDQtE3dWkuTeqw5SFITmKJ4XcCMhdkiQLzxatSuaLTgG9FecUj1EelgCWKZbixgEV0YIfGLp4TTHMDs12UDis1HLWLBfYtOCKGExKsSeIrD2NNdDYMZJAkIHI7Ceg/vlXeMivsCoAus8StKwyj1o0aNSp1vlkGFxEuY/IZv28u+/W8zPr2qaXFrRCBcvRcZqNCg7uRm9YGyFGs2khPCsMRFCVGzBuiWzWk0+GFaJmBPJJv7GiAbjCAOetdV0FgAy4HjPKjkV/kgM8idcCk5TDBVH6h+E4C8MDYMA34B5Slu7arFicaUpbIiypTEz743GgmU+qoVGxSX5zl1QOhZGI9LnUQCKbmlri4v+hqJslm47lqwYNPm8uOrCkpxisCyAFnbU2RWnWj+L1BLWZAGay0wPzqE7StgKgenhEsYylOlOUmyohrj3sJkbpdwvuY8mdItqpGcerbT+YKrkUWRkTERAua/kTi1MKPT2I8U1X45ZIr1zKLlRPJIKvbQDUIIZvnFMLm7W1Psi9XWknDoXYkFA5Omtn/ZqvMSodC4X+xmZgUR2oMKMK4mBiqFsKmy96KKMAeds4cJCkftJpjIURGxTOSnPq4+NnczLFJEVoP1oTTBB1OQbKkNwSMeKriZAmZ7eEQvvIHaoRzsu6iRvrX3tQrzmZi62/4GEpAWP4Y+NlsCyyUSE1tWNnzk5CXk/S2QnFVVl1omN1E5s4V1CvZoC+47jkbWEat2R56Lr7rNCoIEehWuUi5J/ZbebTslKnI5scJbRdXDya7H4g2J/MMIcGhbhVhrsraXHYPygHqPqLoD82TshWy9PPpqPXRiGBdPLAFVGC5bqqxGInVQTQD2L4JpU841QYOMuh1DIihTphN3Q4ZRk+PVjMyskGmYurCEOOC6gnA3UiqeGk2y8HETCU1SrdERbcWsoAlJKrbbIXEU0xoMs0wd/VnQD3s4aMT9vWMWkWXqGmORTb6bM8FI3nDwNMfp4NFgumEW/lKKJ09TMsA2wguAG5z+uUSUwsAlJUkMHIGB0+OoyJCBiMdCsk0CRTu7GU3Iy4KzVLNNJ9PAyl3wwEEKd5ypj/xF7wZJelddkQ2CCes3Y08GnmZMCgLq7xyIBaE5sEQqjDvH92tdnM87b/W5e8qxjErKJKaieVWiuwjV6M8zsCw+YiRjvhkgtylcVSb7t14viv53tlQ4MG5XKOkLUkOkEVA4R8577EWQCSjXv84lH7ToOLRdVHqRmE/ZIrBjwZXM2EZB83HIOB2MnHzbTC9aubF/7BO//897zq8MZ2e8zTFF/Oq+Hg98uQKLYydI0guEpmmiroLwSdzewynHYZ8PS9CLhlslDV5y2+h87V9TDwqKr7rOh8CuKy3R136kLXBmZQJO+Fl/yaK3yQPE61r8W404goycjrTZtNisNl6ZaPOLB03xzNb/iqZ/3XP/h504qObmxXKzkxyV60co9HdkRDBEzF3GIR2R3rBtQ1JF0YKQkl7cJJQg/OzVFsZcIv7aRVuFUbeWXoUpTUdHULGNRGDI2kN2FA8AwQglIshVYv80gDfHJZM87SA8sDZknbra73bV9Jsey4IAKAz3/T3X/lx77gwp17168er9YE+zlRnyYWvWhL4WB494Y9rFVIOIKENeXnZhnsFhyIas2nRZYSmn2ta1MtGCx+JCDWBbIjmwRkKyNTp3Zwkl2tuRfSfh03wH4cOYReKYeLDVEGdhFcb+VVUB+A7WLY3OtGlNfjo/nFn3f5r7/li5/2vAtPPn683pvYzwt3kC2Cg30DK4MxNl7LCpBGDWcVc4+cPbJPGd7/VoigA3kWvMhnaVSkU6G8mC/knik6LQM4QIxLOe/PJ4OK3J+wLTkhqgqZxOxzHg48LKONs1EbBIayx0wjrNe03fAznnfhb/zUF7/odZevPHy02ps0WAm9Lk7JTACGK6fAGHbNCsdp58JWHjYjMkDh32WXnYKisxzLcqzOiQiQGZnZsiTYToSTGNJLq1LGIfP3lIODAd3AB79+o1+39iV9HRWGqm312UkDiGlUy9pSOXv9k9UM1nWnbLVXa9pu+NLlg7/2k1/0ujc948pDh/p9G+rSRSp6saHpt+m1SjGVYgVkn5iMk+waeTJzzHe7FdtFprQCwZbtKYlKFLO2bo7EQAedT1CAEhrkl6DSmdJ/+Jjao/9GP6W2VgerO69UbFXON1L22aQhgk3uTR8CIG8UDvM+AKs1zVve25++5Yde/+99/XOvPHxIdMIv5HimYW63BlMyD2OCTDfVw6rJ2Tk9ZZSc2cvcpdtpiNyZKrZFxe45PmqfXWYKUt+zIW6L3GjviBE0oJLdU+ri/4B+kueugBiHomjtFO7wBk5domd06EEX5OKJ62lakXwt0Z//26/66m996ZNXjpl3fZ2LPOf1nAfAYPwEvTWEOXruwKWWSifk54VMygne3EU+GOWD/Kx0CKfsQcedgstdHv04FZLFflfgSfHAfk0cU5LPAgX1URV9xi2cBiLU+46ssTolt5SrCEy4dDRNJF859NXf8pI/97dfdXRj3m7m/muoKJkaa3/DlcwoStSIAeCPpgloYEhuA6Dg3yqZe33TGlSGIehmkOD75BAhLCMQycLH/yWzMdQ8C7dMhqOHLoW6czaB7EAUiRQDkklylZAGMn70FAJ3TRphIoP0L3qRd/ctyUw8b/nf/VPP+a/siGtaF26uhYEkk0+JO7Hl44OoNjQrVKJ/FbKg+ymIdASyxbckm9Uy8aCZUkOC4ckMeQe5unJiDwGU8sTErMUcHEwQ70hAECM+QcqAHaV5F2rl2fGO15VUPhG1imohb/IJ8Kd+mQhinrmmPUdNnIRpRdsNv+6PPOMv/9gXXrhj/8YTm9V68NYCsOBk0tg9UStElurPh9tMCO82AfbpUEQQAfYNCdKSg0QoNWdHUHD5GsCJxTllsMY91BT7YUUeE2zGaiVTLuTGhfIu4DLg5YAUAFXQWx1JDooYxDkkd5FsFV/8eZe/41988dOed+HqY0c5tsI5vc4cgI6GyuwMBvt75NKzcFpskT7ZVHx6a9S4dXEfr8cN0swAp6eRg83bx75nLXrrQHmpmrTk4S0FTd7d08XrQ+I09tKxu1PSsmlXFxYJfppmDCSVgHx9cuvCMa3siOu//ekvfvHrLz/xyOFqXTMLxu5AlTEIVTc2paGKpdmzhA2B0ydqsohbpc5oln1ByuEzr1jH/tVxMrAUOCJyEFUwTogZAcWYjcJPgHpPrlOqAWL/RVHOmrPJMnWzclxGsaqGGPAVlbJ4ayi8XmPfVHY65/gR17f/5Be97o/e/finjvSHVQ2nNoVNFsHGYW0wUlTyBED2aHD0UEt2++QmiaDQ2uNlOlJOfINdP80tfx5mwOYNUM1vs97pXsxoQ0AZqHZRh7IvwlNGxBg4bR7ro+28qYeP4q4pDU33KVnFWqdtVLh12ZQR2QZuTVwkP+L65n8kR1xHesRVpsWOUuvAY6oxg0ExHbDxJv09R05an1r3IYk4IpPp62waN1SOqcI6KkvUB9GglKi4qaPcwKFAPiClHsy4YVrQRdkGqNGoIR/NNaOFRxnqKFu0CHZodBNUjri+7aVPPn7Ms33HSiMraVKtNDtzH9Ykn1U/J/bwUlf3idAtEocG3YlR4lGFGfBPRmUDjEa7Ca6FUbdCXLvYnGjuZf+RJkMCgC0UnJHNj16SS+lfqwQ34Qz49LcTb4891r8St5Hgqp2WponkVyf+4295yZ/9Hz533jLPCzL8MSCg4qataqWWmQH7yusaP/qnUL6tT2DeMpEIIoBjHa8zf/gvuyKXXQX2tiBq7ksLGkAIyI856YSY1UlLoZ19cDpxKJleEuTE6V9LjaKk4tjCg1H1U2IYQ3In693JBxQtyc8EHB/Nf/jPPPdPf+crD69ty169sAII5yQyGOxqrXqylpgJABOYLZM1eQteOx0ZvgzN19nrC4BaJvkr7YIXmVqoAdBRAiGztYEXOxfOL6SOan/9i72/X03Z9K9q1A2JMSVNODDqARc8yBbsBCqakU5L2y3v7U8P/N6Tv/TD9+4dTOx/TOrSUqFBAIiE1BCQ7m4E2WodTATJ7N2xHmm3RA3EpOEFyJWsZEyk98we0fY0DADvyL1c5AFIzq1i3EMuvv+2maDAl9NIHTzcGN6YSemrYxtFiUORKBufzPxs+bvMDqfBpdJ2w6s1ffjdj/2tr33Hpz52/dylPd7qHwTGoUMyKttHaEzOOhA08exBIVBKCXVDwNbrVogACVLBQ6BJwCdwjU+/gDTUk50i+4F63zPurQfSK437WMn+QIfBRPrrXy00oWMWR96YmHdvsoyn1bXIlZrQz7Vnf88cOexOTYx55tWafusXHvier3/njSe352/f2x4zgMWzC2bZeclMw0D94mtPe/2lMUOrGXYOQKo73XJMAYBHQnZ1GiBq1VXy0VuWhC+D7660Q58RCMEDKxZKI+fh7fkhME/qNiMOG4h7idY7GnzP25M3UOFwV6R8qWmWVxaXuCLjURaIGcw8reiXfuTev/mf/trxjfng3Gq7se+IWSTRTBEfmV9eIHqGu6I6XA+9xuXWqEoDIaeitaDcsQuTK4m3dm5W3Wxu70onG1krY83VhvzphgLPOG13vtPj03HG6hfec0TYTWBYKiEddCIb+LonOVagiX78e97/d7/pXev1tN6f5JdOeWGSCT09UydudXeP6otOfOYCNqQpWbng95smnWEoVSRscwR5Yx4vNpO5x9jAEQ9lt7NdxVEeKYm/fLmt8ROlysCROd1GK6U9U0GT7ZrVNQ51QlloioASRwRNKU5ed+E/3fYPvvXdb/kfP3Thjn0gfp5ZBTYqcb0qT7eVa+/ZNQ7VCa0gg80msVsjO24A9K9z29yAoE6y+sguoBuMrNfImUgiJR9r4E7uSHUEGBZevXYuirHaPZP1kwIK2VIdyObO2epwWFKwUbGQmsVY/PKNnrZbXq1onvl7vuGdv/yjH7t0eV9+YQCuUX/UUFyjqlZlk0PYbE07jyowmcTl7tOj7GRzYAjPUcMEsn2rNQLpGWYSGTEJKtDKLAgk0AZECGykgsxRBOQZK4FhHYeUga1scZvRVGMB6EMQfQriblYSYM+mS9jtJNkAPnnl+Du/7td++xcfvO0pB9tN/B04w7I1Vlip93q6pbgSoP4KEeodt9pFa7VD/BkiQ0amJFlU2OvZXS23BOORVrZGMyVZaqUiSSuEk0p16kf5TrfxzCD7AYEQhBjfR6aoS3xs5TYTcYd0QZBnvZ2YK3gaC3nOX+4mUfXgfdf++z/xjnvf8/ilpxxsj/O3CwRMKnikYWbuqixoRHsBcRw85nCGon2aJXwHebhCd8oMxM/KeZuOS9aq3dRYZWNlrMUYKMHCkHiJAQq1GRODySvLL6xyKqMpJ+dm8gmTh2Oj7UKmbkdNb0OD9Tmw2WtMdlj16Hd+7a8/8onrF+7Yb6IK3ZiejGgblWtpVaL0SpZZMkgmkcwuIYAUTovwnIoS+OZm01JHZg0qMOvUGvzk6ZKnw1Va0IKO3DcWNBmAvL/lA/e/sAoAkUE0AFNh9Du/EhpJiUjNd5RMEapdwgc2D+unj9oPgxq7Hla99ZPf/fXvPHxyc/bSerOZlyakvJFzCdbW1bSk2upHpdUk27VWp/W13nTL5Mu3fVpbauUl/MRg2HmchpToC9+YjdTgpK47Kd0VKgxqqmZZthRWGRYAlPtnfChcnxdBqqMMNGcAGrBEnqsknTWYo4YQd/aMFhuZATus+nt/8bdoooOzq3lTmRKR9SoM8bYWa7TA8eU6ovgGzLFnUlArEYg5YfhphVMhBsj2YfqUeNBkb1F1D2APU6tK7dabUnn8XvizaQqr6rROXJqB5O2HtTUqtupRupYqFE5KgcRIqbRWtQLMuWR5DZyboD8SCaL//Xvf/8N/7Z4z59fTiuSwaoiOUr/GjRSgrsa0IVhsSS0HPo2GyvkZjCryMQlNipOcoHMGCOkZslyYbAuViUvvTAPPKg0mH0Z0X8N1GSFA2aHL3sq4wsMl6ypjsOCdpoxua5lEEmxmJd9PGut2y+u9CcD//K2//Za/+8GLt+8zMM8cK+DInbmurJVepi7cBxQRU+c3CymdlX0NAp0o8nSkWOUHrW1k+e87DRvV9Agt076+95cVimedpE+yh9VGAtT+NcLgwCgGCpEWD70zlsiVanTVNEd5ktIZLVWBgRTdsM5Y703zlr/7z73z7f9UD6t4tiwVu5SM1cMpM0MQY2N0HnbcAMgXqRvsWZg/NZyNYRA3Am+WbBBbcFjDJ7bMqj1bDKXHlwJoy7JKlomiq4K2w7kcoQR2Uy1fZmD4WzouMjI9RsRn76pU7hwyJpXRql4k6ecayoxOIGy3DODqY0d/60/++rt/6cFLT9mfN2bbIPSLuuWmsMXgEkHeaKDlZltU0rwQlJESlbQbQJi3ALDd9D8CMCaeedonzjHSGgS7N10YZnnSy2OFCndLta2R3pgZ9wQI9gQfKU7eoRqRy/I/umpjxbX0blaN8ITdNBbYWtM+MZ3mSH4jC5F55jPn148/fPhX/9jb77vnyqXLB9vN7F3ZtQ3hxQmMNP/3lCyiWoiiuizW9WpIiFAPE2BJPs84e3ENYO9gvMEdEQFYrSc9doQpIg+MGxzzo/3VSdmU2qJMxaQBCNVs9i5LnE6JkwnEtM4wOgi5szijDNBpJI2tw4YKwZjchlJrlUTwlFg1AM90cDDd/5Gr/82b3v6x9125cMe+HKznLDYvm40CekcjJb3K0WlBplIEkc4jGZQEk/xepgNKwIz1wfTOn/r9xz554/D6Rj7XCm4mlk5nxt6Z6ZFPXN/bnzAz4LHE7EelnCHwpVAb/Zl0mcax4M9sOQAOw4KUIaptfAZIVKQ3P+ctLsYev2Ic5ZhKuhBXvqF+jZbWJMZKxHD/Xm8MJz7UW/myj83xDGDvQD+tIOQqireyyj0N0nP3UL5V3RtLSscusFKZA1CtJTq8ttkc1TO2XPZErMDFZ86vV+spsFTIml1htJNLWlpxS2pb6qPBAG3XFgc6TNC50z77RWhyrJwKYhgoVCpgbMtONIeljoKJ9xlZaA7Vid0gIjDzam8iwjiqdumRyOMkebQ02avERu3jGttsw6lbsdN+a8ebmc+cX9PFke1ZcxdmlTwzz4BP4c0GpDjA1OBR7CRHcJ0ayFs7ZApPvCSMmBSmNAuvG2CavgAK0lmisXHXPSi5w0mTcrGde+uhfWT50+5sUzrAnL5IJfqfNqpcoyE/xyvVQnJscLOesSU/RB+2WTkmDg2RTIKk8STZlS3hpOIddO44Gjk+Q0o3ViU7z6QuibIPB13s3iNZYiz+EppMRA51ziWyf9CCI8rJzOiWATdy/bycyLmTMIL+UlnAR0l0tDCBY0uEReKiQ64PhcrmMr16T1EpdjXVFHlyJNsuyowt1p0A7NlYxi0VukTE2gn69/3s6V1h5eTApmt3rS1tdaNA7RJfx52cXbfITTcuhQ4qo1EDiWhO9wNi8yG55xhUP2bblgtYO6IKAIGHDyuNOza5tcQLWt4MnjDJVVzs6o5TnsjfW9cGe1aYBJAkwDhZACaCrEek7MUENjV34+TE6V9UddTgN3X8ZEyS3QxcUFj7al50Uq5j9DwZV2GyT/cQklMaMZw711JHrDCPWazW91jsl2hN2CRVgtOrSX/GEza5jMc1hUqTAtiwp0HY/BSyoydL5mAzV2rfAQ2ADGehFrTOUQDy38QhzVje0femzpeG8iIhS/E6szZ4SoENxNg99JSdRSi8DmfrqVCDvN9IukgZjpscxAU6Ss3ObKEjL2FiqCRSfGIZjMm1kDn6GoD96MCbGBbi0UFCNO4ZkaWzHWiFzAXidvQxD9LyTfqHwAKhn9SxqUCmLA2s8xvWu6H7tK1GiD3k1qoFbgvRrGoqr/Zv5AYpaIIIp4S5Erf9rHZRsN/nAbxC7rNtDOTfPSgIFsGpU8kQvFenpyjP0kHSS+UJbvGMCC6bfDS+HFX0DhorElW6jtc9JvIPCJjf2MNbDWcAlqgbwrA6tWM4dqZRfkHsevk9VEeYZEEvAoVrLLt9sL0mGfBjInQPgzuYsjwkp3izd6aWpfSP5N9nR0GRQloCM1Ww497DlasINWq8ic0thkZ0qJouETWvWm6G6ZmVgYQr/Ym94GA4EnwOkc1qrwoXW0dQJO3MHTJuwICKSRQ4eqczCWakOSPpRGD97SnTGgOiZGSQ7/+TMZ1DqjybkchZgl2h1UNMjt42rg3jRvTADaA0H+hzZ89RgYLVVfKfF3YLNiLFvfRO1wxzYqLMmfoxZDsqoBDS13GnF4jrPdmqbRnGol/Fvmqp4LJqgKSNMVTPQT4iySwoeZAbgn6lJAPydkK3PFNTovS0V/hcPBfnti7wTMc+ppPt5JCSjj+y3kHmIYVa8BQB1AAKszc61reyCT7VE8pSIJW1JhVNioGTzMzFpHyrmOkTfOXXv0oWpFXeyUdtbKmgjqkH1XZnRXdvUw3JPGMwkbS6KgDIn0oCuBwFhNxew1H+2Fk3IA4wZB7VQ1AytTtTk8weXiWRSbZ0uYxWGbXfGZS5FUpAc6ZAgNmc9Ak0av88tMupbNywWRvrswZK34+l7oQ/z2PKbVXV0LlRpALE0NUVwGioBJV5iqEpq7WQtSXRZmxVoiV26UMlkzqdZt5VNtaRrdqhTChHrpwZyNURPTGsT87IK5UxSk8XnzCxvDPXgMsbQgOVOhU7YDAMEAYIETvl8xuMMrPHtCIFwsDWqkmBFoGUeaR2TOl/ro5XcwoR9HCJM4/6AgAcQ9RrRwTLHhoG6goNibrpbEGGZO3jrg2jSEqdajAG7deY5Sv/go9jfwWKgl69D4uCbcqfRkYDQ25IlRTFRCOUONlpPyBgTUiD1fdsBIBqK8H5s5QgTs3GD8vgdCD3jpJxi3AGoG/qhGrJKuuZlsEFrzg/DRs5/hUo/YbSi1Xao+GbHqiSlPqmA9KgfGOWDjCs/lPN/fMehGStNJIlnYZGQ9aVu2tnaRTzNWR2uqk6zODuE6QDCLyBuoYF5wUVF5VKa2Eg59JhgmjJaUsIskOHblwC8e4VHAE++wCNVnZboAuefNLhqro1HhUMeJg76071kk2U1MgqBUDMAIUiBJuB2W+cv5WCYkSBO997P5SZhMpL4Bm3ykDg8ls6dRhnDk0J5TasbVSK2u5fa0lRrUOeWL/AjGAL54ALAMRtbNYMeURnAiQ+e2ljyX2zRruEaJ1oyEaIHpN0wUlEI5USqR9lW694cll+ANh0xYpaD2kspG1bc5/MGmjE7ZXNSBHf5FjGYTWEjKc97BSyMpXhqRYIoG7GkSZOuUpqtHsGbEqj0mBEvo3mHDHLRIindgdzJ8k10vUZ5mxrJvO215LzLI5D9crWoTozeRCAZ2EDwd4A4nwHUMO7CypqC21sUcdDyYen+r3Cvt1rRsa3xLXYeNRjhRs1jYMsadeDBUo2WTylMXS6KKoUJ58QeUlwdW7bh+zrBn0Wtr1hZmfIn6411ZVEsRbVjE9hTilq4YgwIkA+J6aAU95Tt6dZRSWummCn9/N6LxUk4gnEcUDqYFZAu8GbgKiMi1SNEQNbGxqyDwcAMte1ellnwSxcaWg2bIDXu0VDeWQuKGQSWffKjDI1NSJsSPMua1srliP5Ij+XcjENOHqrjqr7qKS6DsSRTTH6Kdp7N+4deha5LhjSFMjawoCsbH6OFad8bBAEvMUTlAaxOumJRMGfbpHGQDirZZIyoUptR/DOlP4ho1m4qkbUI1qUsbeHfFC7K7gLHM5A0SwPArPNFgsU7D2uaO+dQXzjo1EeWhgZMoOSi0iCjL0HwAQWKFJxmWQfzPpIsX5VpC3GlCQrQ0M8qMwOi7ZOnVxBzs3Ij/cgHGCfhIzK7GyE1rrpt2BwAVVftpexu1ndrF+VbvOIiiPE9KLcQoZnVYnDdZZTZxgYsOmKU+eifLCWu+CEqaSkQzJkNWzzKnhHDu6cGy3gMmJolaTc4lsWgs5V1PI7b1fOdWxwFsW81p/r/BSFdXJDXTgQA/pVT7lb7mUgMdVVfAkgqyf00ATLCD3SC4PsFM6ryBlUAMJmguzSBn7OWbi/ClPRjUYvS+SLarVjISBU+wau9AS0/ai7li05i1WeY3l3LhIaV1Jh4VodvXKJ01XMgG3fkI9tsg4oQICIPcfiNAK5jmxt2LnyALEzDe2RbpXJ9ERPDDmv1Z1EHjCxyy8guMrcNFcMM3yQEdCQYWknxQTP9lJ3dubWd2AXkSBMXNWzoLQ9OJnIcwb5LTvmeK8wC+EYsrO5sgDDeZSrW1LZHnVLx6s7E+kUpWsMsa3XORC49gcBsgtbJEmTGhlClK5xruJ6uwjnk6TCLc6jkn57f+lV1XJHIgo0xLwwUr6pGDg4zPHbG1gaVwSZmak1CedB/2jVFw8DImGWCbM9bpAwLVW1Oa5aYK8Lt1P6h1QAkFVqRi6BRpYxIQmmvpvVg9P/RWpA4q6QuDhXE9JEJ7rF8mf5Q1Iyn2ooSp1i7jcuFZxvRvyseTKl2kqU04JwSyYGhvW5ufHaQDG2HYKyR1v+aLJgFNaNh/Vahgh1YUvqN7ZTeWm6iYNMtB0O5cBJ0rIqiYZQDxl6HdIIBKTHLCWfjo1VpGwmxiG/s5ZWh+huzG79EHrSfgBboObwyINVh2dErEilNlEeugRNHaftb1/lZ1Q+6Cfdza6BTKVOT851TdUQo86mtPOTnZK4kTUt9HwC6CVSLo3RqtXLuyVQjON2dGhYwX5KSipLdkeGgNXxeLycniwqj+QDvRKQj9SABm5GN2R2sr4O3LBbjSAfzaRw1AL57wpdKsVtwOId+lEbP7c+GynvL7762fPMPr78ubP+jimlSUHYW0laYOoUSqTdcpQ6GabZPzwQxtJqx0ThcQopQMJRiLzB7xNb8LKxVhVDK9mTMtCC0mhKdUF0NQ35gWeyNVrBQ04P2WgjiBOtY/N9OoFUZ1QyrgM7V0R/qr2qaRowjcouyFyqmnMvtCrBqXkAmHENSgCS3QSYu0aGQtCriOSrFjv9gKE0SlcAZOstjT0vuEX1eJ9C0JhDSfU6w7J/lLgWTJ+Wk9LEjuwk46H0C6vGFqq06AwUqR1ylVPqpR7wM6l2gPYkNPksS2QDHgkkn+hS/3FcWHVubcahqBuQAGjfzMAA/JvEhHyAVLcozYiqRr3yLsHnRhk7NRqLpDvtUphuRWkA/aDJKVTPblqNQiG5ENgSKTtuMCWjsAxEI77mpJx5uEdLW3XBatY35Q4dwEQE0k+phB9TJ/OslDjLGNvA0Id+kPSY2mR3CwKgJ2s6WnxBnYphQN8G0MUhO7+VxKM0axF9I4XdO/Q2d+t9q0fJGsqAnF6XNLH6GMH+RooBgOW4wVspT8YlJJqUIeodX6B3BqNokKAkL6Mh8hc9PiV13shIgg6q7MAJXlE1+j1a4vCYa3VjQ0u92UwC1WN6BLesDilzYaDu2rWwyBw4hBwQHZ5TT1MwH/T50JGTZLELPs8MmiOSXrxianrLBqxiEXoKxxCqoWK5mWFzuI/PiTuPSSxfOcyAfdGMTxDoR7CGNNXsQIRBO3I7nBCXFuzCSQBsu0F5YCsxCN5hCRltcj5XoGoSjf5TpjoPNOLtFw282gtEIPgX0Gf4g61IgnMitUdPW/vEVwzoF+DbAWliBKGdnUZIU1vc4UqnYjCAnAb4mMSQD8yI10BgXzuH4UAiiJBSVQbQTEpK7IMOdttab5eGOPkKHgxIK3SwsuLKdpRJ4aaWFHE2E3dCSWGYJ+Olg22h7S40CwD9UWjJ0SNtbg1uOOWVAVB6hghIyXsjwTpaE6drLqT2sZ8yW/XoGMOsMXb+gI6OyeIYtSih1yuk6+8OP6d6VtCyqaa6IcSARb0BEIOS/Q9O9BS5mvVuoD6RKqfjJ++x2G2Xy/cjFPRyzwXODJ8AKwAQw86xDBT1DidxSTyqLKgs79w21rGjmGwFTJ2OUYGOPKYfhKwhJJzgDop4adVN7mRtb2yukSqbwvhqbqh0L3pOb2moA9WSjcBYOEBIXCoh3gxsMpcYhGwzY4qZaBqZ7+TDDH2XqTOGZWfIBND/A8Cbg0x3ulCkAAAAJXRFWHRkYXRlOmNyZWF0ZQAyMDE4LTAzLTAxVDEyOjAwOjExKzAwOjAwWYox4AAAACV0RVh0ZGF0ZTptb2RpZnkAMjAxOC0wMy0wMVQxMjowMDoxMSswMDowMCjXiVwAAAAASUVORK5CYII=;" vertex="1" parent="1">
          <mxGeometry x="470" y="154.79000000000002" width="90" height="90" as="geometry" />
        </mxCell>
        <mxCell id="bY_rfbGoF0togMvtseXg-16" value="Heroku CLI" style="text;html=1;strokeColor=none;fillColor=none;align=center;verticalAlign=middle;whiteSpace=wrap;rounded=0;" vertex="1" parent="1">
          <mxGeometry x="482.5" y="259.58" width="65" height="20" as="geometry" />
        </mxCell>
        <mxCell id="bY_rfbGoF0togMvtseXg-8" value="" style="shape=doubleArrow;whiteSpace=wrap;html=1;fillColor=#d5e8d4;strokeColor=#82b366;" vertex="1" parent="1">
          <mxGeometry x="590" y="187.29" width="70" height="25" as="geometry" />
        </mxCell>
        <mxCell id="bY_rfbGoF0togMvtseXg-17" value="Messaging API" style="text;html=1;strokeColor=none;fillColor=none;align=center;verticalAlign=middle;whiteSpace=wrap;rounded=0;" vertex="1" parent="1">
          <mxGeometry x="683.5" y="259.58" width="87" height="20" as="geometry" />
        </mxCell>
      </root>
    </mxGraphModel>
  </diagram>
</mxfile>
